<svg xmlns="http://www.w3.org/2000/svg" width="302.776" height="375.628" viewBox="0 0 302.776 375.628">
  <g id="Сгруппировать_4503" data-name="Сгруппировать 4503" transform="translate(-803.516 -307.372)">
    <g id="Background_Complete" data-name="Background Complete" transform="translate(882 307.372)">
      <g id="Сгруппировать_3529" data-name="Сгруппировать 3529">
        <g id="Сгруппировать_3526" data-name="Сгруппировать 3526">
          <g id="Сгруппировать_3525" data-name="Сгруппировать 3525">
            <path id="Контур_5064" data-name="Контур 5064" d="M239.845,248.7a20.582,20.582,0,0,1-24.13-26.2L250.9,109.234a20.374,20.374,0,0,1,15.117-13.97l.063-.014a20.376,20.376,0,0,1,19.593,6.121l80.5,87.111A20.583,20.583,0,0,1,355.6,222.528l-115.693,26.16Zm27.576-147.453-.045.011a14.286,14.286,0,0,0-10.6,9.8l-35.19,113.271A14.435,14.435,0,0,0,238.508,242.7l.045-.009,115.693-26.162a14.436,14.436,0,0,0,7.419-23.877l-80.5-87.114A14.291,14.291,0,0,0,267.421,101.249Z" transform="translate(-214.765 -94.743)" fill="#e0e0e0"/>
          </g>
        </g>
        <g id="Сгруппировать_3528" data-name="Сгруппировать 3528" transform="translate(54.205 46.779)">
          <g id="Сгруппировать_3527" data-name="Сгруппировать 3527">
            <path id="Контур_5065" data-name="Контур 5065" d="M251.891,179.017a7.6,7.6,0,0,1,6.053-9.154,7.491,7.491,0,0,1,9.258,5.629,7.571,7.571,0,0,1-5.84,9.209A7.679,7.679,0,0,1,251.891,179.017Zm-13.2-60.362,14.165-3.262,7.924,45.348-9.476,2.186Z" transform="translate(-238.693 -115.393)" fill="#e0e0e0"/>
          </g>
        </g>
      </g>
    </g>
    <g id="Сгруппировать_3587" data-name="Сгруппировать 3587" transform="translate(803.516 269)">
      <g id="Сгруппировать_3572" data-name="Сгруппировать 3572" transform="translate(0 162.273)">
        <g id="Сгруппировать_3571" data-name="Сгруппировать 3571">
          <g id="Сгруппировать_3567" data-name="Сгруппировать 3567">
            <g id="Сгруппировать_3557" data-name="Сгруппировать 3557">
              <g id="Сгруппировать_3553" data-name="Сгруппировать 3553">
                <g id="Сгруппировать_3547" data-name="Сгруппировать 3547">
                  <g id="Сгруппировать_3546" data-name="Сгруппировать 3546">
                    <g id="Сгруппировать_3545" data-name="Сгруппировать 3545">
                      <g id="Сгруппировать_3544" data-name="Сгруппировать 3544">
                        <g id="Сгруппировать_3543" data-name="Сгруппировать 3543">
                          <path id="Контур_5072" data-name="Контур 5072" d="M564.052,164.005H279.068a8.9,8.9,0,0,0-8.9,8.9V374.19a8.9,8.9,0,0,0,8.9,8.9H388.443s6.959,21.514-14.609,32.646H476.1s-24.35-8.348-18.089-32.646H564.052a8.9,8.9,0,0,0,8.9-8.9V172.9A8.9,8.9,0,0,0,564.052,164.005Z" transform="translate(-270.172 -164.005)" fill="#263238"/>
                        </g>
                      </g>
                    </g>
                  </g>
                </g>
                <g id="Сгруппировать_3552" data-name="Сгруппировать 3552" transform="translate(145.762 196.212)">
                  <g id="Сгруппировать_3551" data-name="Сгруппировать 3551">
                    <g id="Сгруппировать_3550" data-name="Сгруппировать 3550">
                      <g id="Сгруппировать_3549" data-name="Сгруппировать 3549">
                        <g id="Сгруппировать_3548" data-name="Сгруппировать 3548">
                          <path id="Контур_5073" data-name="Контур 5073" d="M343.948,252.319c3.876,5.541-2.191,11.608-7.734,7.732a1.977,1.977,0,0,1-.476-.476c-3.867-5.541,2.193-11.6,7.732-7.732A1.948,1.948,0,0,1,343.948,252.319Z" transform="translate(-334.517 -250.62)" fill="#455a64"/>
                        </g>
                      </g>
                    </g>
                  </g>
                </g>
              </g>
              <g id="Сгруппировать_3556" data-name="Сгруппировать 3556" transform="translate(4.907 3.687)">
                <g id="Сгруппировать_3555" data-name="Сгруппировать 3555">
                  <g id="Сгруппировать_3554" data-name="Сгруппировать 3554">
                    <path id="Прямоугольник_5616" data-name="Прямоугольник 5616" d="M2.847,0H290.114a2.847,2.847,0,0,1,2.847,2.847V178.569a0,0,0,0,1,0,0H0a0,0,0,0,1,0,0V2.847A2.847,2.847,0,0,1,2.847,0Z" fill="#fff"/>
                  </g>
                </g>
              </g>
            </g>
            <g id="Сгруппировать_3559" data-name="Сгруппировать 3559" transform="translate(4.907 3.687)">
              <g id="Сгруппировать_3558" data-name="Сгруппировать 3558">
                <path id="Прямоугольник_5617" data-name="Прямоугольник 5617" d="M2.978,0H290.516a2.445,2.445,0,0,1,2.445,2.445V14.838a0,0,0,0,1,0,0H0a0,0,0,0,1,0,0V2.978A2.978,2.978,0,0,1,2.978,0Z" fill="#ebebeb"/>
              </g>
            </g>
            <g id="Сгруппировать_3566" data-name="Сгруппировать 3566" transform="translate(12.178 9.36)">
              <g id="Сгруппировать_3561" data-name="Сгруппировать 3561">
                <g id="Сгруппировать_3560" data-name="Сгруппировать 3560">
                  <path id="Контур_5074" data-name="Контур 5074" d="M279.664,170.194a2.058,2.058,0,1,1-2.057-2.057A2.059,2.059,0,0,1,279.664,170.194Z" transform="translate(-275.548 -168.137)" fill="#e0e0e0"/>
                </g>
              </g>
              <g id="Сгруппировать_3563" data-name="Сгруппировать 3563" transform="translate(6.135)">
                <g id="Сгруппировать_3562" data-name="Сгруппировать 3562">
                  <path id="Контур_5075" data-name="Контур 5075" d="M282.372,170.194a2.058,2.058,0,1,1-2.057-2.057A2.057,2.057,0,0,1,282.372,170.194Z" transform="translate(-278.256 -168.137)" fill="#e0e0e0"/>
                </g>
              </g>
              <g id="Сгруппировать_3565" data-name="Сгруппировать 3565" transform="translate(11.97)">
                <g id="Сгруппировать_3564" data-name="Сгруппировать 3564">
                  <path id="Контур_5076" data-name="Контур 5076" d="M284.948,170.194a2.058,2.058,0,1,1-2.059-2.057A2.059,2.059,0,0,1,284.948,170.194Z" transform="translate(-280.832 -168.137)" fill="#e0e0e0"/>
                </g>
              </g>
            </g>
          </g>
          <g id="Сгруппировать_3570" data-name="Сгруппировать 3570" transform="translate(61.787 218.938)">
            <g id="Сгруппировать_3569" data-name="Сгруппировать 3569">
              <g id="Сгруппировать_3568" data-name="Сгруппировать 3568">
                <path id="Контур_5077" data-name="Контур 5077" d="M478.588,260.824c0,.093-40.552.17-90.566.17-50.03,0-90.575-.077-90.575-.17s40.545-.172,90.575-.172C438.036,260.652,478.588,260.729,478.588,260.824Z" transform="translate(-297.447 -260.652)" fill="#455a64"/>
              </g>
            </g>
          </g>
        </g>
      </g>
      <g id="Сгруппировать_3576" data-name="Сгруппировать 3576" transform="translate(48.338 210.631)">
        <g id="Сгруппировать_3573" data-name="Сгруппировать 3573" transform="translate(34.732)">
          <path id="Контур_5078" data-name="Контур 5078" d="M347.423,220.647c0,9.018-6.617,16.872-21.163,16.872-7.054,0-14.473-1.964-19.418-5.455l4.655-9.018a24.485,24.485,0,0,0,14.473,4.583c5.89,0,9.526-2.474,9.526-6.619,0-4-2.616-6.617-11.855-6.617H310.623l2.621-28.654H344.3v9.453H323.062l-.8,9.673h4.146C341.461,204.864,347.423,211.629,347.423,220.647Z" transform="translate(-306.842 -184.864)" fill="#018050"/>
          <path id="Контур_5079" data-name="Контур 5079" d="M326.872,211.68c0-16.8,9.308-26.328,21.817-26.328,12.582,0,21.818,9.528,21.818,26.328s-9.236,26.328-21.818,26.328C336.18,238.008,326.872,228.48,326.872,211.68Zm31.78,0c0-11.562-4.071-16.363-9.963-16.363-5.817,0-9.89,4.8-9.89,16.363s4.073,16.365,9.89,16.365C354.582,228.045,358.652,223.244,358.652,211.68Z" transform="translate(-281.497 -185.352)" fill="#018050"/>
          <path id="Контур_5080" data-name="Контур 5080" d="M348.667,211.68c0-16.8,9.308-26.328,21.818-26.328,12.582,0,21.817,9.528,21.817,26.328s-9.236,26.328-21.817,26.328C357.975,238.008,348.667,228.48,348.667,211.68Zm31.78,0c0-11.562-4.071-16.363-9.963-16.363-5.817,0-9.891,4.8-9.891,16.363s4.073,16.365,9.891,16.365C376.377,228.045,380.447,223.244,380.447,211.68Z" transform="translate(-253.919 -185.352)" fill="#018050"/>
        </g>
        <g id="Сгруппировать_3574" data-name="Сгруппировать 3574" transform="translate(0 64.863)">
          <path id="Контур_5081" data-name="Контур 5081" d="M291.51,214.061h2.15v15.051h-2.15Z" transform="translate(-291.51 -213.889)" fill="#263238"/>
          <path id="Контур_5082" data-name="Контур 5082" d="M307.394,214.061v15.051h-1.765L296.6,217.889v11.222H294.45V214.061h1.765l9.03,11.222V214.061Z" transform="translate(-287.79 -213.889)" fill="#263238"/>
          <path id="Контур_5083" data-name="Контур 5083" d="M306.354,215.932h-5.16v-1.871h12.448v1.871h-5.16v13.18h-2.127Z" transform="translate(-279.257 -213.889)" fill="#263238"/>
          <path id="Контур_5084" data-name="Контур 5084" d="M318.643,227.241v1.871H307.72V214.061h10.622v1.871h-8.47v4.624h7.546v1.826h-7.546v4.859Z" transform="translate(-270.999 -213.889)" fill="#263238"/>
          <path id="Контур_5085" data-name="Контур 5085" d="M324.139,229.112l-3.246-4.624c-.3.023-.625.043-.947.043h-3.72v4.581h-2.15V214.061h5.87c3.912,0,6.277,1.978,6.277,5.246a4.747,4.747,0,0,1-3.31,4.75l3.568,5.054Zm-.066-9.8c0-2.15-1.441-3.375-4.193-3.375h-3.654v6.773h3.654C322.632,222.706,324.073,221.457,324.073,219.308Z" transform="translate(-262.956 -213.889)" fill="#263238"/>
          <path id="Контур_5086" data-name="Контур 5086" d="M333.914,214.061v15.051h-1.762l-9.03-11.222v11.222h-2.15V214.061h1.762l9.03,11.222V214.061Z" transform="translate(-254.231 -213.889)" fill="#263238"/>
          <path id="Контур_5087" data-name="Контур 5087" d="M339.536,225.349h-8l-1.654,3.763h-2.215l6.814-15.051h2.129l6.837,15.051h-2.256Zm-.752-1.719-3.246-7.376-3.246,7.376Z" transform="translate(-245.758 -213.889)" fill="#263238"/>
          <path id="Контур_5088" data-name="Контур 5088" d="M335.617,214.061h2.15v13.18h8.151v1.871h-10.3Z" transform="translate(-235.7 -213.889)" fill="#263238"/>
          <path id="Контур_5089" data-name="Контур 5089" d="M343.2,227.489l.8-1.679a7.75,7.75,0,0,0,4.968,1.742c2.6,0,3.717-1.01,3.717-2.322,0-3.677-9.114-1.355-9.114-6.943,0-2.322,1.805-4.3,5.761-4.3a8.857,8.857,0,0,1,4.839,1.334l-.711,1.719a7.77,7.77,0,0,0-4.127-1.225c-2.558,0-3.654,1.074-3.654,2.388,0,3.677,9.116,1.375,9.116,6.9,0,2.3-1.849,4.279-5.826,4.279A8.943,8.943,0,0,1,343.2,227.489Z" transform="translate(-226.111 -213.985)" fill="#263238"/>
          <path id="Контур_5090" data-name="Контур 5090" d="M360.617,227.241v1.871H349.693V214.061h10.622v1.871h-8.472v4.624h7.548v1.826h-7.548v4.859Z" transform="translate(-217.889 -213.889)" fill="#263238"/>
          <path id="Контур_5091" data-name="Контур 5091" d="M366.113,229.112l-3.248-4.624c-.3.023-.623.043-.945.043H358.2v4.581h-2.152V214.061h5.872c3.915,0,6.279,1.978,6.279,5.246a4.751,4.751,0,0,1-3.312,4.75l3.568,5.054Zm-.066-9.8c0-2.15-1.438-3.375-4.191-3.375H358.2v6.773h3.656C364.609,222.706,366.047,221.457,366.047,219.308Z" transform="translate(-209.848 -213.889)" fill="#263238"/>
          <path id="Контур_5092" data-name="Контур 5092" d="M377.288,214.061l-6.6,15.051h-2.127l-6.624-15.051h2.322l5.419,12.362,5.462-12.362Z" transform="translate(-202.395 -213.889)" fill="#263238"/>
          <path id="Контур_5093" data-name="Контур 5093" d="M380.481,227.241v1.871H369.555V214.061h10.624v1.871H371.7v4.624h7.55v1.826H371.7v4.859Z" transform="translate(-192.757 -213.889)" fill="#263238"/>
          <path id="Контур_5094" data-name="Контур 5094" d="M385.974,229.112l-3.246-4.624c-.3.023-.625.043-.945.043h-3.722v4.581h-2.15V214.061h5.872c3.91,0,6.277,1.978,6.277,5.246a4.749,4.749,0,0,1-3.312,4.75l3.568,5.054Zm-.063-9.8c0-2.15-1.441-3.375-4.193-3.375h-3.656v6.773h3.656C384.469,222.706,385.91,221.457,385.91,219.308Z" transform="translate(-184.714 -213.889)" fill="#263238"/>
        </g>
        <g id="Сгруппировать_3575" data-name="Сгруппировать 3575" transform="translate(66.01 90.847)">
          <path id="Контур_5095" data-name="Контур 5095" d="M333.052,238.619v2.974h-12.4V225.577h12.1v2.974h-8.42v3.477h7.437v2.884h-7.437v3.706Z" transform="translate(-320.649 -225.301)" fill="#263238"/>
          <path id="Контур_5096" data-name="Контур 5096" d="M337.629,241.593l-3.088-4.46H331.13v4.46h-3.706V225.577h6.932c4.281,0,6.957,2.218,6.957,5.811a5.2,5.2,0,0,1-3.294,5.056l3.593,5.149Zm-3.477-13H331.13v5.582h3.022c2.265,0,3.409-1.051,3.409-2.791C337.561,229.625,336.417,228.6,334.152,228.6Z" transform="translate(-312.076 -225.301)" fill="#263238"/>
          <path id="Контур_5097" data-name="Контур 5097" d="M345.051,241.593l-3.09-4.46h-3.409v4.46h-3.706V225.577h6.932c4.279,0,6.957,2.218,6.957,5.811a5.2,5.2,0,0,1-3.294,5.056l3.593,5.149Zm-3.477-13h-3.022v5.582h3.022c2.265,0,3.409-1.051,3.409-2.791C344.983,229.625,343.839,228.6,341.574,228.6Z" transform="translate(-302.685 -225.301)" fill="#263238"/>
          <path id="Контур_5098" data-name="Контур 5098" d="M341.823,233.739c0-4.76,3.708-8.284,8.765-8.284,5.036,0,8.765,3.5,8.765,8.284s-3.729,8.282-8.765,8.282C345.531,242.021,341.823,238.5,341.823,233.739Zm13.776,0a5.012,5.012,0,1,0-5.011,5.124A4.885,4.885,0,0,0,355.6,233.739Z" transform="translate(-293.857 -225.455)" fill="#263238"/>
          <path id="Контур_5099" data-name="Контур 5099" d="M360.994,241.593l-3.09-4.46h-3.409v4.46h-3.7V225.577h6.932c4.279,0,6.955,2.218,6.955,5.811a5.2,5.2,0,0,1-3.294,5.056l3.593,5.149Zm-3.477-13h-3.022v5.582h3.022c2.265,0,3.409-1.051,3.409-2.791C360.926,229.625,359.782,228.6,357.517,228.6Z" transform="translate(-282.509 -225.301)" fill="#263238"/>
        </g>
      </g>
      <g id="Сгруппировать_3581" data-name="Сгруппировать 3581" transform="translate(29.765 220.257)">
        <g id="Сгруппировать_3578" data-name="Сгруппировать 3578">
          <g id="Сгруппировать_3577" data-name="Сгруппировать 3577">
            <path id="Контур_5100" data-name="Контур 5100" d="M288.7,227.434a5.422,5.422,0,0,1-4.642-8.155l15.749-26.987a5.371,5.371,0,0,1,4.71-2.691l.018,0a5.362,5.362,0,0,1,4.664,2.732l15.5,27.132a5.422,5.422,0,0,1-4.734,8.112l-31.248-.145Zm15.821-36.214h-.011a3.766,3.766,0,0,0-3.3,1.887L285.458,220.1a3.8,3.8,0,0,0,3.255,5.72h.011l31.248.143a3.8,3.8,0,0,0,3.319-5.688l-15.5-27.134A3.771,3.771,0,0,0,304.521,191.221Z" transform="translate(-283.311 -189.601)" fill="#018050"/>
          </g>
        </g>
        <g id="Сгруппировать_3580" data-name="Сгруппировать 3580" transform="translate(18.834 12.888)">
          <g id="Сгруппировать_3579" data-name="Сгруппировать 3579">
            <path id="Контур_5101" data-name="Контур 5101" d="M291.625,211.566a2,2,0,0,1,2.1-1.991,2.005,2.005,0,1,1,0,4.01A2.023,2.023,0,0,1,291.625,211.566Zm.193-16.276,3.828,0-.655,12.11-2.562,0Z" transform="translate(-291.625 -195.29)" fill="#018050"/>
          </g>
        </g>
      </g>
      <g id="Сгруппировать_3586" data-name="Сгруппировать 3586" transform="translate(229.185 220.257)">
        <g id="Сгруппировать_3583" data-name="Сгруппировать 3583">
          <g id="Сгруппировать_3582" data-name="Сгруппировать 3582">
            <path id="Контур_5102" data-name="Контур 5102" d="M376.731,227.434a5.422,5.422,0,0,1-4.642-8.155l15.749-26.987a5.366,5.366,0,0,1,4.71-2.691l.016,0a5.363,5.363,0,0,1,4.667,2.732l15.5,27.132A5.422,5.422,0,0,1,408,227.579l-31.248-.145Zm15.821-36.214h-.014a3.762,3.762,0,0,0-3.3,1.887L373.487,220.1a3.806,3.806,0,0,0,3.255,5.72h.014L408,225.96a3.8,3.8,0,0,0,3.321-5.688l-15.5-27.134A3.764,3.764,0,0,0,392.552,191.221Z" transform="translate(-371.342 -189.601)" fill="#018050"/>
          </g>
        </g>
        <g id="Сгруппировать_3585" data-name="Сгруппировать 3585" transform="translate(18.834 12.888)">
          <g id="Сгруппировать_3584" data-name="Сгруппировать 3584">
            <path id="Контур_5103" data-name="Контур 5103" d="M379.656,211.566a2,2,0,0,1,2.1-1.991,1.975,1.975,0,0,1,2.043,1.994,2,2,0,0,1-2.046,2.016A2.023,2.023,0,0,1,379.656,211.566Zm.193-16.276,3.828,0-.655,12.11-2.562,0Z" transform="translate(-379.656 -195.29)" fill="#018050"/>
          </g>
        </g>
      </g>
    </g>
  </g>
</svg>
