<svg xmlns="http://www.w3.org/2000/svg" width="33.215" height="32.419" viewBox="0 0 33.215 32.419">
  <g id="breakfast" transform="translate(-26.015 -28.985)">
    <circle id="Эллипс_693" data-name="Эллипс 693" cx="12.055" cy="12.055" r="12.055" transform="translate(35.119 28.985)" fill="#edebdc"/>
    <g id="french-fries" transform="matrix(0.883, 0.469, -0.469, 0.883, 15.217, -14.29)">
      <path id="Контур_11222" data-name="Контур 11222" d="M0,0H2.99V13.455H0Z" transform="translate(51.424 31.539) rotate(-12.007)" fill="#ffce56"/>
      <path id="Контур_11223" data-name="Контур 11223" d="M180.014,83.09a.557.557,0,0,1-.545-.441l-2.8-13.161a.557.557,0,0,1,.429-.661l2.925-.622a.557.557,0,0,1,.661.429l2.8,13.161a.557.557,0,0,1-.429.661l-2.925.622A.566.566,0,0,1,180.014,83.09ZM177.877,69.8l2.567,12.071,1.835-.39-2.567-12.071Z" transform="translate(-125.789 -37.831)" fill="#4c241d"/>
      <path id="Контур_11224" data-name="Контур 11224" d="M0,0H2.99V13.455H0Z" transform="translate(40.546 31.221) rotate(2.35)" fill="#ffce56"/>
      <path id="Контур_11225" data-name="Контур 11225" d="M98.17,85.024h-.023L95.16,84.9a.557.557,0,0,1-.534-.579l.547-13.444a.556.556,0,0,1,.179-.387.58.58,0,0,1,.4-.147l2.988.122a.557.557,0,0,1,.534.579L98.726,84.49A.557.557,0,0,1,98.17,85.024Zm-2.408-1.212,1.874.076.5-12.33-1.874-.076Z" transform="translate(-55.179 -39.683)" fill="#4c241d"/>
      <path id="Контур_11226" data-name="Контур 11226" d="M0,0H2.99V13.455H0Z" transform="translate(54.57 31.973) rotate(2.35)" fill="#ffce56"/>
      <path id="Контур_11227" data-name="Контур 11227" d="M198.9,90.389h-.023l-2.988-.122a.557.557,0,0,1-.534-.579l.548-13.444a.539.539,0,0,1,.579-.534l2.987.122a.557.557,0,0,1,.534.579l-.547,13.444A.557.557,0,0,1,198.9,90.389ZM196.5,89.176l1.874.076.5-12.331L197,76.846Z" transform="translate(-141.886 -44.3)" fill="#4c241d"/>
      <path id="Контур_11228" data-name="Контур 11228" d="M0,0H2.99V13.455H0Z" transform="translate(45.239 29.159) rotate(-4.012)" fill="#ffce56"/>
      <path id="Контур_11229" data-name="Контур 11229" d="M133.665,68.743a.556.556,0,0,1-.555-.518L132.167,54.8a.557.557,0,0,1,.516-.595l2.983-.21a.551.551,0,0,1,.595.516l.944,13.422a.557.557,0,0,1-.516.595l-2.983.21Zm-.349-13.462.866,12.311,1.872-.131-.866-12.311Z" transform="translate(-87.491 -25.612)" fill="#4c241d"/>
      <path id="Контур_11230" data-name="Контур 11230" d="M0,0H2.99V13.455H0Z" transform="translate(42.092 34.438) rotate(-5.391)" fill="#ffce56"/>
      <path id="Контур_11231" data-name="Контур 11231" d="M111.383,106.212a.556.556,0,0,1-.554-.5l-1.264-13.4a.556.556,0,0,1,.5-.607l2.977-.281a.565.565,0,0,1,.407.125.556.556,0,0,1,.2.377l1.264,13.4a.556.556,0,0,1-.5.607l-2.977.281Zm-.657-13.45,1.159,12.286,1.868-.177-1.159-12.286Z" transform="translate(-68.036 -57.825)" fill="#4c241d"/>
      <path id="Контур_11232" data-name="Контур 11232" d="M0,0H2.99V13.455H0Z" transform="translate(48.074 33.69) rotate(-5.391)" fill="#ffce56"/>
      <path id="Контур_11233" data-name="Контур 11233" d="M154.333,100.843a.556.556,0,0,1-.554-.5l-1.263-13.4a.556.556,0,0,1,.5-.607l2.977-.281a.565.565,0,0,1,.407.125.557.557,0,0,1,.2.377l1.263,13.4a.556.556,0,0,1-.5.607l-2.977.281Zm-.657-13.45,1.158,12.286L156.7,99.5l-1.158-12.286Z" transform="translate(-105.005 -53.204)" fill="#4c241d"/>
      <path id="Контур_11234" data-name="Контур 11234" d="M0,0H2.99V13.455H0Z" transform="translate(44.471 37.948) rotate(2.35)" fill="#ffce56"/>
      <path id="Контур_11235" data-name="Контур 11235" d="M126.377,133.337h-.023l-2.988-.122a.557.557,0,0,1-.534-.579l.548-13.444a.543.543,0,0,1,.579-.534l2.988.122a.557.557,0,0,1,.534.579l-.548,13.444a.557.557,0,0,1-.556.534Zm-2.408-1.213,1.875.076.5-12.331-1.875-.076Z" transform="translate(-79.458 -81.269)" fill="#4c241d"/>
      <path id="Контур_11236" data-name="Контур 11236" d="M0,0H2.99V13.455H0Z" transform="matrix(0.979, -0.202, 0.202, 0.979, 46.6, 40.685)" fill="#ffce56"/>
      <path id="Контур_11237" data-name="Контур 11237" d="M145.36,148.882a.557.557,0,0,1-.546-.444l-2.722-13.177a.557.557,0,0,1,.433-.658l2.928-.6a.557.557,0,0,1,.658.433l2.721,13.177a.557.557,0,0,1-.433.658l-2.928.6A.563.563,0,0,1,145.36,148.882Zm-2.064-13.3,2.5,12.086,1.837-.379-2.5-12.086Z" transform="translate(-96.026 -94.463)" fill="#4c241d"/>
      <path id="Контур_11238" data-name="Контур 11238" d="M0,0H2.99V13.455H0Z" transform="translate(51.198 36.456) rotate(2.35)" fill="#ffce56"/>
      <path id="Контур_11239" data-name="Контур 11239" d="M174.693,122.6h-.023l-2.988-.122a.557.557,0,0,1-.534-.579l.548-13.444a.556.556,0,0,1,.179-.387.579.579,0,0,1,.4-.147l2.988.122a.557.557,0,0,1,.534.579l-.548,13.444a.557.557,0,0,1-.556.534Zm-2.408-1.213,1.875.076.5-12.331-1.875-.076Z" transform="translate(-121.046 -72.029)" fill="#4c241d"/>
      <path id="Контур_11240" data-name="Контур 11240" d="M0,0H2.99V13.455H0Z" transform="translate(36.921 31.058) rotate(-9.67)" fill="#ffce56"/>
      <path id="Контур_11241" data-name="Контур 11241" d="M75.315,80.395a.557.557,0,0,1-.549-.463L72.5,66.669a.557.557,0,0,1,.455-.643l2.947-.5a.557.557,0,0,1,.642.455l2.266,13.263a.557.557,0,0,1-.455.643l-2.947.5A.589.589,0,0,1,75.315,80.395ZM73.692,67.03l2.078,12.164,1.849-.316L75.541,66.714Z" transform="translate(-36.127 -35.525)" fill="#4c241d"/>
      <path id="Контур_11242" data-name="Контур 11242" d="M0,0H2.99V13.455H0Z" transform="translate(58.614 29.63) rotate(8.049)" fill="#ffce56"/>
      <path id="Контур_11243" data-name="Контур 11243" d="M218.275,73.831a.553.553,0,0,1-.078-.005l-2.961-.419a.558.558,0,0,1-.474-.63l1.885-13.322a.555.555,0,0,1,.217-.367.567.567,0,0,1,.413-.106l2.961.419a.557.557,0,0,1,.473.63l-1.885,13.322A.557.557,0,0,1,218.275,73.831Zm-2.332-1.449,1.858.263,1.729-12.219-1.858-.263Z" transform="translate(-158.582 -29.898)" fill="#4c241d"/>
    </g>
    <path id="Контур_11211" data-name="Контур 11211" d="M82.03,185.879s7.2,4.359,12.22.517,12.937-.579,12.937-.579l-.022-8.754s-7.915-3.263-12.937.579-12.22-.517-12.22-.517Z" transform="translate(-48.493 -127.124)" fill="#e66353"/>
    <path id="Контур_11212" data-name="Контур 11212" d="M85.821,185a16.3,16.3,0,0,1-7.533-2.19.536.536,0,0,1-.259-.457l-.022-8.754a.536.536,0,0,1,.813-.46c.07.042,6.95,4.121,11.618.55,5.207-3.983,13.131-.787,13.466-.649a.535.535,0,0,1,.332.494l.022,8.754a.536.536,0,0,1-.74.5c-.076-.032-7.693-3.1-12.407.509A8.505,8.505,0,0,1,85.821,185ZM79.1,182.038c1.3.7,7.2,3.585,11.36.4,4.344-3.325,10.585-1.648,12.724-.922l-.019-7.615c-1.521-.543-7.924-2.543-12.076.634-4.289,3.281-9.92,1-12.008-.042Z" transform="translate(-45.029 -123.596)" fill="#4c241d"/>
    <path id="Контур_11213" data-name="Контур 11213" d="M82.008,202.313s7.2,4.359,12.22.517,12.937-.579,12.937-.579v-2.975s-7.915-3.263-12.937.579-12.22-.517-12.22-.517Z" transform="translate(-48.493 -146.36)" fill="#ffded5"/>
    <path id="Контур_11214" data-name="Контур 11214" d="M85.8,201.427a16.3,16.3,0,0,1-7.533-2.19.536.536,0,0,1-.259-.458V195.8a.536.536,0,0,1,.813-.458c.07.042,6.948,4.122,11.618.55,5.208-3.985,13.131-.787,13.466-.649a.535.535,0,0,1,.332.5v2.975a.536.536,0,0,1-.74.5c-.076-.031-7.693-3.1-12.407.509A8.507,8.507,0,0,1,85.8,201.427Zm-6.72-2.961c1.3.7,7.205,3.583,11.359.4,4.347-3.326,10.589-1.647,12.726-.922v-1.836c-1.521-.544-7.923-2.544-12.075.634-4.29,3.283-9.924,1-12.01-.043v1.762Z" transform="translate(-45.029 -142.827)" fill="#4c241d"/>
    <path id="Контур_11218" data-name="Контур 11218" d="M30.037,148.86s7.2,4.359,12.231.517,12.948-.579,12.948-.579l-.022-8.754s-7.922-3.263-12.948.579-12.231-.517-12.231-.517Z" transform="translate(-3.464 -95.063)" fill="#e66353"/>
    <path id="Контур_11219" data-name="Контур 11219" d="M33.835,147.978a16.324,16.324,0,0,1-7.54-2.19.536.536,0,0,1-.259-.457l-.022-8.754a.536.536,0,0,1,.813-.46c.069.042,6.955,4.121,11.629.55,5.212-3.984,13.142-.787,13.478-.649a.536.536,0,0,1,.332.494l.021,8.754a.536.536,0,0,1-.74.5c-.077-.032-7.7-3.1-12.418.51A8.518,8.518,0,0,1,33.835,147.978Zm-6.728-2.962c1.3.7,7.211,3.585,11.371.4,4.35-3.325,10.595-1.648,12.735-.922l-.018-7.615c-1.521-.543-7.931-2.544-12.088.634-4.294,3.282-9.929,1-12.019-.042Z" transform="translate(0 -91.533)" fill="#4c241d"/>
    <path id="Контур_11220" data-name="Контур 11220" d="M30.015,165.293s7.2,4.359,12.231.517,12.948-.579,12.948-.579v-2.975s-7.922-3.263-12.948.579-12.231-.517-12.231-.517Z" transform="translate(-3.464 -114.299)" fill="#ffded5"/>
    <path id="Контур_11221" data-name="Контур 11221" d="M33.813,164.413a16.324,16.324,0,0,1-7.54-2.19.535.535,0,0,1-.259-.458v-2.975a.536.536,0,0,1,.813-.458c.069.042,6.955,4.122,11.629.549,5.212-3.982,13.142-.787,13.477-.649a.536.536,0,0,1,.332.5V161.7a.536.536,0,0,1-.74.5c-.076-.032-7.7-3.1-12.418.51a8.518,8.518,0,0,1-5.294,1.706Zm-6.727-2.962c1.3.7,7.212,3.584,11.37.4,4.351-3.326,10.6-1.647,12.738-.921V159.1c-1.522-.544-7.931-2.544-12.087.634-4.295,3.283-9.933,1-12.021-.043v1.763Z" transform="translate(0 -110.771)" fill="#4c241d"/>
  </g>
</svg>
