<svg xmlns="http://www.w3.org/2000/svg" width="25.843" height="66.478" viewBox="0 0 25.843 66.478">
  <g id="carrot" transform="translate(-156.48)">
    <path id="Контур_11150" data-name="Контур 11150" d="M202.465,150.959c-4.348-4.415-7.985-24.725-7.985-39.974a7.985,7.985,0,1,1,15.97,0C210.45,126.224,206.815,146.539,202.465,150.959Z" transform="translate(-33.066 -89.627)" fill="#bad3ba"/>
    <path id="Контур_11151" data-name="Контур 11151" d="M171.526,8.616l6-6.9L175.956.357,170.438,6.7V0H168.36V6.7L162.842.357,161.275,1.72l6,6.9A12.94,12.94,0,0,0,156.48,21.359c0,12.693,2.524,31.386,7.081,40.106,1.74,3.325,3.7,5.013,5.838,5.013s4.1-1.688,5.843-5.013c4.556-8.717,7.081-27.4,7.081-40.106A12.94,12.94,0,0,0,171.526,8.616Zm4.534,44.843h-6.711v2.077h6.071c-1.859,5.643-4,8.864-6.021,8.864-4.611,0-7.812-15.008-8.662-19.658h6.292V42.665h-6.652a138.684,138.684,0,0,1-1.8-19.51h6.391V21.078h-6.4a10.84,10.84,0,0,1,21.677.28c0,3.324-.167,6.9-.478,10.517h-6.7v2.077h6.5A116.175,116.175,0,0,1,176.06,53.459Z"/>
  </g>
</svg>
