<svg xmlns="http://www.w3.org/2000/svg" width="61.5" height="61.501" viewBox="0 0 61.5 61.501">
  <g id="chef" transform="translate(-1 -1)">
    <g id="Сгруппировать_4639" data-name="Сгруппировать 4639" transform="translate(6.952 17.829)">
      <path id="Контур_11135" data-name="Контур 11135" d="M15.927,29.9l-2.645-1.984a3.307,3.307,0,0,1,1.984-5.952h.662L16.919,18c-4.857,0-9.9-.034-9.9-.034-.014.383-.02.765-.02,1.148V24.3a12.825,12.825,0,0,0,6.06,10.935l2.583,1.614h.285Z" transform="translate(-7 -17.966)" fill="#bad3ba"/>
    </g>
    <g id="Сгруппировать_4641" data-name="Сгруппировать 4641" transform="translate(4.969 1)">
      <g id="Сгруппировать_4640" data-name="Сгруппировать 4640">
        <path id="Контур_11136" data-name="Контур 11136" d="M29.8,12.9H9.96a4.954,4.954,0,0,1-1.7-9.612,4.814,4.814,0,0,1,3.061-.107,5.908,5.908,0,0,1,8.555-.653,5.908,5.908,0,0,1,8.555.653,4.808,4.808,0,0,1,3.061.107A4.955,4.955,0,0,1,29.8,12.9Z" transform="translate(-5.001 -1)" fill="#f0bc5e"/>
      </g>
    </g>
    <g id="Сгруппировать_4643" data-name="Сгруппировать 4643" transform="translate(4.969 1)">
      <g id="Сгруппировать_4642" data-name="Сгруппировать 4642">
        <path id="Контур_11137" data-name="Контур 11137" d="M29.8,12.9H9.96a4.954,4.954,0,0,1-1.7-9.612,4.814,4.814,0,0,1,3.061-.107,5.908,5.908,0,0,1,8.555-.653,5.908,5.908,0,0,1,8.555.653,4.808,4.808,0,0,1,3.061.107A4.955,4.955,0,0,1,29.8,12.9Z" transform="translate(-5.001 -1)" fill="#bad3ba"/>
      </g>
    </g>
    <g id="Сгруппировать_4644" data-name="Сгруппировать 4644" transform="translate(50.597 1.992)">
      <path id="Контур_11138" data-name="Контур 11138" d="M54.968,2H51V19.855h3.968a.992.992,0,0,0,.992-.992V2.992A.992.992,0,0,0,54.968,2Z" transform="translate(-51 -2)" fill="#bad3ba"/>
    </g>
    <g id="Сгруппировать_4645" data-name="Сгруппировать 4645" transform="translate(1 1)">
      <path id="Контур_11139" data-name="Контур 11139" d="M58.532,52.581a2.842,2.842,0,0,0-2.368,1.267l-.865,1.3-2.4-1.714A15.136,15.136,0,0,0,44.053,50.6a14.133,14.133,0,0,0-9.026,3.251c-.1-.088-.2-.178-.3-.257V48.613h7.935A7.945,7.945,0,0,0,50.6,40.677V31.984L52.24,28.7a2.979,2.979,0,0,0,2.324-2.9V21.831a2.942,2.942,0,0,0-.183-.992h.183a1.986,1.986,0,0,0,1.984-1.984V2.984A1.986,1.986,0,0,0,54.565,1H44.645a1.986,1.986,0,0,0-1.984,1.984V21.021a2.942,2.942,0,0,0-.992-.183,2.979,2.979,0,0,0-2.976,2.976V25.8a2.952,2.952,0,0,0,.489,1.627l1.495,4.486v6.783H24.806V36.71H25.8a6.952,6.952,0,0,0,6.944-6.944V26.411l1.984-.992v-.613a14.75,14.75,0,0,0-1.991-7.235,33.344,33.344,0,0,0-.484-5.34,4.927,4.927,0,0,1-1.92.639,31.278,31.278,0,0,1,.411,4H28.774V12.9H26.79v3.968H24.806V12.9H22.823v3.968H20.839V12.9H18.855v3.968H16.871V12.9H14.887v3.968H12.9V12.9H10.919v3.968H9a32.533,32.533,0,0,1,.536-3.989,4.936,4.936,0,0,1-1.925-.557A34.377,34.377,0,0,0,6.97,17.83l-.035,1.025H15.6l-.5,1.985a4.3,4.3,0,0,0-2.465,7.735l2.249,1.687v8.431h-4.36A9.527,9.527,0,0,0,1,48.221v6.343A7.945,7.945,0,0,0,8.935,62.5H31.751a4.945,4.945,0,0,0,4.274-2.491A14.238,14.238,0,0,0,44.053,62.5,15.13,15.13,0,0,0,52.9,59.664l2.4-1.714.865,1.3a2.84,2.84,0,0,0,2.368,1.268,3.968,3.968,0,1,0,0-7.935ZM42.661,46.629H32.742V52.7c-.121-.025-.236-.064-.36-.08a3.876,3.876,0,0,0-6.146-.891l-.848.849H18.855V44.645a2.99,2.99,0,0,1,1.189-2.381l2.117-1.587h19.1l1.693,1.693,1.4-1.4-1.693-1.693V32.742h5.952v7.935A5.958,5.958,0,0,1,42.661,46.629Zm0-15.871h-.277l-.663-1.989a2.962,2.962,0,0,0,.94-.178v2.166Zm5.952-2.166a2.942,2.942,0,0,0,.992.183h.379l-.992,1.984h-.379Zm2.976-1.8H49.6a.993.993,0,0,1-.992-.992v-.992h3.968V25.8A.993.993,0,0,1,51.589,26.79Zm.992-4.96v.992H48.613v-.992a.993.993,0,0,1,.992-.992h1.984A.993.993,0,0,1,52.581,21.831ZM44.645,2.984h9.919V18.855H44.645Zm0,17.855h2.166a2.942,2.942,0,0,0-.183.992v8.927H44.645Zm-3.968,2.976a.992.992,0,0,1,1.984,0V25.8a.992.992,0,0,1-1.984,0ZM22.823,38.694H20.839V36.71h1.984Zm4.96-7.935H24.827a3.973,3.973,0,0,1,3.454-3.526l2.477-.309v.86A2.979,2.979,0,0,1,27.782,30.758ZM13.83,26.989a2.314,2.314,0,0,1,1.388-4.166h1.436l.991-3.968h13.54A12.981,12.981,0,0,1,32.726,24.2l-1.268.634-3.422.428a5.961,5.961,0,0,0-5.214,5.906v1.573h4.96a4.893,4.893,0,0,0,2.354-.622A4.943,4.943,0,0,1,25.8,34.726H16.871V29.27Zm3.041,9.721h1.984v1.984H16.871ZM2.984,54.565V48.221a7.544,7.544,0,0,1,7.544-7.544h8.326a4.984,4.984,0,0,0-1.983,3.968v7.935H10.919V47.387l-1.1-2.193-1.775.888.887,1.774v5.307L7.242,54.855l1.4,1.4,1.693-1.693H24.806v5.954l-15.871,0A5.958,5.958,0,0,1,2.984,54.565Zm28.767,5.954H26.79V53.983l.848-.849a1.893,1.893,0,0,1,3.029.491l.477.938h.612a2.977,2.977,0,0,1-.006,5.954Zm20-2.467a13.16,13.16,0,0,1-7.693,2.465,12.164,12.164,0,0,1-2.28-.222,7.8,7.8,0,0,0,.646-1.762h2.227V56.548H42.661V54.565H40.677v2.153a5.794,5.794,0,0,1-.877,3.028,12.241,12.241,0,0,1-3.139-1.733,4.641,4.641,0,0,0,.049-.472,4.887,4.887,0,0,0-.491-2.1,12.156,12.156,0,0,1,7.834-2.857,13.157,13.157,0,0,1,7.693,2.466l2.1,1.5Zm6.786.481a.861.861,0,0,1-.717-.384l-1.066-1.6,1.066-1.6a.861.861,0,0,1,.717-.384,1.984,1.984,0,1,1,0,3.968Z" transform="translate(-1 -1)"/>
      <path id="Контур_11140" data-name="Контур 11140" d="M27.976,23.955a2.979,2.979,0,0,0,2.976-2.976H28.968a.992.992,0,1,1-1.984,0H25A2.979,2.979,0,0,0,27.976,23.955Z" transform="translate(-1.194 -1.161)"/>
      <path id="Контур_11141" data-name="Контур 11141" d="M21,45h1.984v1.984H21Z" transform="translate(-1.161 -1.355)"/>
      <path id="Контур_11142" data-name="Контур 11142" d="M25,45h1.984v1.984H25Z" transform="translate(-1.194 -1.355)"/>
      <path id="Контур_11143" data-name="Контур 11143" d="M21,49h1.984v1.984H21Z" transform="translate(-1.161 -1.387)"/>
      <path id="Контур_11144" data-name="Контур 11144" d="M25,49h1.984v1.984H25Z" transform="translate(-1.194 -1.387)"/>
    </g>
  </g>
</svg>
