<svg xmlns="http://www.w3.org/2000/svg" width="199.788" height="95.311" viewBox="0 0 199.788 95.311">
  <g id="Сгруппировать_4687" data-name="Сгруппировать 4687" transform="translate(-403 -337)">
    <path id="Контур_11267" data-name="Контур 11267" d="M579.72,171.179v1.662l.644.306.013.006,1.124.3.273.357,1,.471v-2.23h1.83l-.338-.753-.321.052v-5.3l-1.883-2.54H579.72Z" transform="translate(-72.05 181.529)" fill="#fff"/>
    <path id="Контур_11268" data-name="Контур 11268" d="M640.1,329.66l-5.861,2.051-1.924.674,11.58,4.3.325.12.222.269.964,1.167,4.206-2.923-.611-.8Z" transform="translate(-113.322 51.142)" fill="#fff"/>
    <path id="Контур_11269" data-name="Контур 11269" d="M731.808,246.055l.166-.349L730.8,244.26h-5.116l-.29.549-1.246,2.335,3.8,1.279,3.106-.788.215-.452,5.982.594,2.025-.953Z" transform="translate(-185.394 118.16)" fill="#fff"/>
    <path id="Контур_11270" data-name="Контур 11270" d="M824.99,232.657l-5.665-.03-.954-1.117h-8.439l3.666,3.155-4.636,2.034-.891.418,15.854,1.627Z" transform="translate(-251.251 128.165)" fill="#fff"/>
    <path id="Контур_11271" data-name="Контур 11271" d="M638.12,244.35l.751,6.167h10.25l-1.425-1.578h-1.638l-1.722-1.621h-4.075l-1.425-1.608,4.993-.011Z" transform="translate(-117.882 118.09)" fill="#fff"/>
    <path id="Контур_11272" data-name="Контур 11272" d="M290.546,151.061l-7.318-.93-17-3.8-2.465-.013L262,144.755H251.151l-1.335-1.489h-26.13l1.834,2.454h-1.136l-3.332-1.263-11.935-4.628h-1.53l-4.735-9.71h-7.988l-2.551-.934-3.134,2.876,1.991,2.779-1.3,4.793H176.678v-2.152h-7.4l-1.033-.986h-2.688l-6.332-7.682H142.339l-2.35-2.652H109.571l7.921,4.882h-2.449l13.013,8.016h4.264l3.181,3.375h5.512v3.013h7.46l.31.288h4.735v.779l10.585,2.566,2.3-.215,20.252,3.521,5.648,7.193h-.278l-1.9-1.6H166.779l5.824,5.6h11.78l-2.079,2.869-16.918-2.114-1.847,2.152H137.711l-5.687,4.561H99l5.31,4.206H93.43l8.379,6.406H108.4l3.461,2.279h14.255L123.37,187H146.2l6.541-6.593v16.743h-9.13l-2.583-1.113-5.76,3.186-.943,3.366-2.981,4.025h-6.819L117.7,221.47h19.372l1.111-1.507h4.994l8.056-9.979h23l1.978-1.507h7.243l8.678-7.262,2.583,2.107h26.33l2.139,2.893h29l-6.242,13.846h14.264l2.82-1.595h3.1l6.694-4.608,5.1-13.013-5.893-6.672h-2.387l-1.2-1.507H255.555l1.365-2.4-3.732-6.834,6.672-6.771,4.436-6.672.183.14L279,166.9l1.664,1.343,12.555-3.108Zm-1.212,12.822L281.9,165.73l-.725.179-.581-.476-1.057-.861-13.861,3.1-.689.153-.557-.43-.646-.506-5.519,8.3-.08.121-.1.1-7.236,7.331-.319.325,3.924,7.189-2.583,4.585H267.4l.452.568.745.938h2.454l4.378,4.951-4.378,11.173-5.6,3.857h-3l-2.305,1.309-.155.088-.347.2H249.272l.96-2.127,4.072-9.027.4-.887h5.659l.684-1.319-.734-.489H224.27l-.452-.609-1.685-2.282h-26.66l-.418-.342-2.94-2.409-9.453,7.9h-7.176l-1.576,1.2-.4.308H150.2l-8.05,9.985h-5.054l-.656.893-.452.613H121.062l.979-2.135,3.463-7.533.4-.878h6.52l3.864-5.213.646-2.275.17-.607.551-.3,2.85-1.578.646-.357.678.291,1.343.579h10.452l1.27-1.061h0V180.474h0v-.555l.362-.43,2.346-2.746h-4.257l-8.039,8.108h-17.1l2.749-3.067H112.517l-3.468-2.277h-6.511l-2.744-2.1h13.747l-3.158-2.673h-3.272l-1.937-1.535h27.594l5.689-4.559h26.066l.837-.979.372-.43.527-.618.805.1,18.846,2.355h9.57l2.368-4.651h-2.626l-1.937,1.612h-8.018l.954-1.315h7.064l1.987-1.479h2.656l-.359-.456h-6.382l-1.722-1.352h-16l-1.337-1.294h17.219l1.909,1.576h5.478l-8.889-11.322-19.337-3.364-1.248-.215h0v-.215l-2.817.276-.181.019-.176-.043L156.5,145l-.822-.2h0v-.846h0v-.379h-6.048l-.31-.291h-6.156v-3.013h-6.737l-.446-.473-2.734-2.9h-4.585l-.362-.215-1.132-.7-4.531-2.8h9.729l-.669-.71h-7.768l-.364-.215-1.879-1.16-4.52-2.8H139.02l.45.506,1.9,2.152H158.2l.452.549,3.988,4.843,1.208,1.466-1.657.82h5.185l.431.43.588.564h6.128v2.152h16.746l.43.734.022.034h2.223l-2.316-1.212,1.886-6.922-1.477-2.06.764-.7,1.679.613h7.025l4.481,9.191-3.285.521h6l.263.1,11.3,4.38,3.722,1.393h5.824l-1.832-2.454h20.878l1.322,1.489h11l1.756,1.563,2.884.015h.164l.157.034,16.726,3.737,4.774.607,1.076.138.215,1.076,1.528,8.063.265,1.4Z" transform="translate(309.57 210.84)" fill="#fff"/>
    <path id="Контур_11273" data-name="Контур 11273" d="M398.158,207.1H387.65v.39l7.585,1.84,2.923-.286V207.1Z" transform="translate(78.679 147.322)" fill="#fff"/>
    <path id="Контур_11274" data-name="Контур 11274" d="M372.733,251.611l1.937,1.49,14.567-3.229,1.623,1.306,7.432-1.84-1.528-8.063-4.843-.616-16.789-3.749-1.382,6.214,15.3,1.554.861-4.481.682.153.575.129-1.937,9.374-1.231.273.861-4.43-34.249-3.386,1.937-.954h0l-2.008.945h.028l-24.71,11.614,1.823,1.154-2.942,1.029-.572.2,8.117,4.425,1.6,2.094,9.1,11.926,5.09-1.4,1.834-1.578.915.7-6.619,8.676-13.345-9.991-3.272-3.963-1.722-2.084-13.041-4.839-2.241.784-.495.174-.5-.172-6.212-2.152-.028-.011-.03-.011-1.78-.7L304,257.575l.047-.093h-8.9L276.2,255.115l-.372.431-5.327,6.242-4.785,5.6v18.491l-2.241,1.849h-11.3l-1.629-.7-2.85,1.563-.7,2.548-4.481,6.046h-6.322l-3.461,7.533h11.81l8.45-11.481h29.324l13.237-10.078h5.6l4.176,3.422h26.886l2.137,2.891h35.73l2.249,1.485-1.722,3.33h-5.6l-4.072,9.027h7.634l.157-.088,7.583-4.294,3.659-10.693L376,283.243H357.969l-.715-.878,3.158-5.433-3.158-6.485,1.838-1.866h0l7.226-7.329Zm3.065-10.966,2.116-1.009h1.4l.344,1.95Z" transform="translate(200.255 123.928)" fill="#fff"/>
    <path id="Контур_11275" data-name="Контур 11275" d="M239.811,148.741l3.181,3.373h8.338l.829.859h4.335l.846-.418-2.165-2.628h2.238l2.934,3.046h5.4l-.936-1.033,2.585-1.281-3.995-4.845H246.6l-2.348-2.654H228.39l1.881,1.16h7.99l3.511,3.724h-7.9l1.132.7Z" transform="translate(203.659 197.499)" fill="#fff"/>
    <path id="Контур_11276" data-name="Контур 11276" d="M313.659,169.94l-1.528-8.063-.215-1.076-1.076-.138-4.774-.607-16.724-3.745-.157-.034h-.164l-2.884-.015L284.38,154.7h-11l-1.322-1.489H251.184l1.832,2.454h-5.822l-3.715-1.408-11.3-4.38-.263-.1H225.91l3.285-.521-4.481-9.191h-7.025l-1.679-.613-.764.719,1.477,2.06-1.885,6.922,2.316,1.212h-2.223l-.022-.034-.43-.734H197.731v-2.152h-6.119l-.6-.573-.43-.43h-5.179l1.657-.82-1.214-1.457-3.988-4.854-.452-.549H164.576l-1.9-2.152-.45-.506H140.37l4.52,2.8,1.879,1.16.364.215H154.9l.669.71h-9.729l4.531,2.8,1.132.7.362.215h4.585l2.734,2.9.446.474h6.737v3.013h6.156l.31.291h6.05v.39h0v.846h0l.822.2,7.587,1.84.177.043.181-.019,2.817-.275v.215h0l1.248.215,19.337,3.364,8.889,11.322h-5.465l-1.918-1.576H195.34l1.337,1.281h16l1.722,1.352h6.382l.359.456h-2.66l-1.987,1.479h-7.064l-.953,1.315h8.018l1.937-1.612h2.626l-2.368,4.651h-9.559L190.282,174.5l-.805-.1-.527.637-.372.43-.837.979H161.674L155.985,181H128.392l1.937,1.535h3.257l3.158,2.673H123l2.744,2.1h6.511l3.463,2.279h18.429l-2.736,3.071h17.109l8.039-8.108h4.257l-2.355,2.757-.362.43v.555h0V206.07h0l-1.274,1.037H166.375l-1.343-.579-.678-.291-.646.357-2.85,1.578-.551.3-.17.607-.646,2.275-3.864,5.213h-6.515l-.4.867-3.463,7.533-.979,2.152H159.19l.452-.613.656-.893h5.054l8.05-9.974h23.31l.4-.308,1.576-1.2h7.176l9.445-7.9,2.94,2.409.418.342h26.668l1.685,2.282.452.609h36.044l.734.489-.684,1.309H277.91l-.4.887-4.072,9.027-.96,2.127h10.364l.347-.2.155-.088,2.316-1.317h3l5.6-3.857,4.382-11.167-4.378-4.951H291.8l-.745-.938-.452-.568H275.075l2.583-4.585-3.924-7.189.321-.323,7.226-7.335.1-.1.08-.121,5.519-8.3.646.506.557.43.689-.153,13.859-3.078,1.057.861.583.469.725-.179,7.432-1.84,1.384-.342Zm-67.945,16.4-.964-1.167-.215-.269-.325-.121-11.58-4.3,1.924-.674,5.861-2.051,8.9,4.852.611.8Zm-22.958-14.126h.015l.594-.943,10.308-.086-.021-1.145.021.181,8.45,5.347-1.855.646-6.218,2.176-5.553,1.937h0l-.527.185-6.212-2.152-1.782-.7Zm-35.207-18.6-7.587-1.84v-.39h10.508v1.937Zm4.427-.265v-2.256h21.638l.458.768h3.013l2.751,2.848L221.313,153l3.616,1.709,1.578-1.937,2.9,1.227-1.22-2.716h3.461l11.291,4.384h0l9.367,3.549-.037.069c-.123.215-.534.984-.979,1.834l-.409.768-18.08-4.3L231.941,156l1.167,9.563h0l.525,4.3H222.29l-.377-.359h-.052l-9.976-12.7Zm42.617,7.422,1.425,1.608h4.07L241.812,164h1.631l1.425,1.578H234.625l-.751-6.175,5.71,1.358ZM259.52,162.3l-.215.452-3.106.788-3.8-1.279,1.246-2.335.291-.549h5.116l1.167,1.451-.166.349,7.473.768-2.034.947Zm11.838-.478,4.636-2.034-3.659-3.155h8.439l.954,1.117,5.665.03-1.065,6.087-15.855-1.625ZM223.644,142l1.885,2.542v5.3h0l.321-.052.338.753h-1.829v2.23l-1-.471-.271-.355-1.124-.3h-.013l-.646-.306V142Zm-64.572.5-3.511-3.724h-8l-1.881-1.158h15.863l2.348,2.652h16.8l3.995,4.845-2.583,1.281.936,1.033h-5.407l-2.934-3.044h-2.238l2.165,2.626-.837.418h-4.344l-.829-.861h-8.338L157.1,143.2H152.3l-1.132-.7Zm113.909,46.972-1.838,1.866,3.158,6.485-3.158,5.433.715.878H289.88l3.971,4.994-3.659,10.693-7.589,4.288-.157.088h-7.635l4.072-9.027h5.6l1.722-3.33-2.241-1.492h-35.73l-2.137-2.891H219.212l-4.176-3.418h-5.6L196.2,214.12H166.879l-8.45,11.5h-11.81l3.461-7.533h6.313l4.49-6.061.7-2.548,2.85-1.578,1.629.7h11.3l2.241-1.834V188.274l4.787-5.6,5.327-6.242.372-.43,18.941,2.368h8.9l-.047.093,1.543.607,1.782.7.03.011.028.011,6.212,2.152.5.172.5-.174,2.243-.783,13.035,4.832,1.722,2.084,3.274,3.963,13.345,9.991,6.619-8.676-.915-.7-1.834,1.578-5.09,1.4-9.1-11.926-1.6-2.094-8.125-4.423.573-.2,2.942-1.029-1.817-1.156,24.7-11.623h-.028l2.008-.945h0l-1.931.962,34.24,3.4-.861,4.43,1.231-.273,1.937-9.374-.575-.129-.682-.153-.852,4.471L287.639,164l1.382-6.214,16.789,3.749,4.843.616,1.528,8.063-7.432,1.84-1.623-1.306-14.567,3.229-1.937-1.489-6.414,9.654Z" transform="translate(286.364 203.04)" fill="#018050"/>
    <path id="Контур_11277" data-name="Контур 11277" d="M899.536,249.57l-2.116,1.009,3.861.941-.344-1.95Z" transform="translate(-321.369 113.993)" fill="#018050"/>
    <path id="Контур_11278" data-name="Контур 11278" d="M473.405,224.177l.377.353h11.343l-.525-4.3h0l-1.164-9.554.861,1.578,18.08,4.3.409-.768c.446-.861.861-1.608.979-1.834l.036-.069-9.369-3.558h0l-11.3-4.382h-3.461l1.22,2.716-2.9-1.227-1.578,1.937-3.616-1.709-1.474,1.709-2.751-2.848h-3.013l-.448-.771H443.47v2.256l19.916,3.463,9.976,12.7Z" transform="translate(34.873 148.381)" fill="#fff"/>
    <path id="Контур_11279" data-name="Контур 11279" d="M575.342,302.11l6.212,2.15.525-.185h0l5.553-1.944,6.218-2.176,1.855-.65-8.45-5.344-.022-.181.022,1.145-10.308.086-.594.943h-.015l-2.779,5.456Z" transform="translate(-67.217 79.298)" fill="#fff"/>
  </g>
</svg>
