<svg id="OBJECTS" xmlns="http://www.w3.org/2000/svg" width="158.264" height="162.532" viewBox="0 0 158.264 162.532">
  <path id="Контур_11128" data-name="Контур 11128" d="M136.222,101.2c3.624,0,9.429-2.956,9.429-6.606V86.159a6.606,6.606,0,0,0-6.58-6.633H89.693c11.209-16.5,5.342-29.8,2.172-35.658-2.092-3.828-6.357-8.788-12.1-8.788H79.4c-5.342,0-11.922,4.015-12.527,9.322-.436,3.962,3.125,12.634,1.06,19.721-1.318,4.576-5.413,8.5-7.871,10.248-1.113.792-4.1,2.778-7.051,5.128H5.974A5.956,5.956,0,0,0,0,85.482V160.4a5.956,5.956,0,0,0,5.983,5.983H128.636c3.641,0,7.123-.41,9.447-5.858a32.56,32.56,0,0,0,2.671-9.447c0-3.65-7.79-6.6-11.441-6.6,3.65,0,9.589-2.956,11.441-6.624a39.6,39.6,0,0,0,2.822-8.414c0-3.65-4.648-6.6-8.289-6.606,3.641,0,10.426-2.965,10.435-6.606v-8.432C145.678,104.153,139.881,101.188,136.222,101.2Z" transform="translate(0 -3.847)" fill="#bad3ba"/>
  <path id="Контур_11129" data-name="Контур 11129" d="M143.589,94.054c3.633,0,9.429-2.956,9.438-6.606V79.017a6.615,6.615,0,0,0-6.615-6.606H97.033c11.2-16.5,5.342-29.8,2.172-35.614-2.092-3.828-6.366-8.8-12.1-8.8h-.374C81.39,28,74.81,32.007,74.2,37.322c-.392,3.926,3.17,12.572,1.06,19.668-1.309,4.567-5.413,8.494-7.871,10.239-1.113.792-4.1,2.778-7.051,5.137H13.314A5.965,5.965,0,0,0,7.34,78.349v74.922a5.965,5.965,0,0,0,5.983,5.983H135.967c3.65,0,7.123-.41,9.447-5.867a32.48,32.48,0,0,0,2.671-9.447c0-3.65-7.79-6.6-11.441-6.6,3.65,0,9.589-2.947,11.441-6.615a39.6,39.6,0,0,0,2.822-8.414c0-3.659-4.648-6.606-8.28-6.615,3.633,0,10.417-2.956,10.426-6.606v-8.44C153.053,97.019,147.221,94.045,143.589,94.054Z" transform="translate(-0.805 -3.07)" fill="none"/>
  <path id="Контур_11130" data-name="Контур 11130" d="M148.129,90.87c3.633,0,9.438-2.956,9.438-6.6v-8.4a6.606,6.606,0,0,0-6.615-6.6H101.573c11.209-16.5,5.342-29.791,2.172-35.614-2.092-3.828-6.357-8.8-12.1-8.8h-.374c-5.342,0-11.922,4.007-12.518,9.322-.436,3.962,3.116,12.616,1.06,19.7-1.318,4.523-5.422,8.494-7.871,10.2-1.113.783-4.1,2.769-7.051,5.128H17.854A5.974,5.974,0,0,0,11.88,75.2v74.922a5.956,5.956,0,0,0,5.983,5.983H140.516c3.641,0,7.123-.41,9.447-5.858a32.346,32.346,0,0,0,2.627-9.455c0-3.642-7.79-6.589-11.432-6.6,3.641,0,9.589-2.947,11.432-6.615a39.319,39.319,0,0,0,2.831-8.414c0-3.65-4.648-6.606-8.289-6.615,3.641,0,10.426-2.956,10.435-6.606V97.512C157.549,93.87,151.77,90.87,148.129,90.87Z" transform="translate(-1.303 -2.726)" fill="none" stroke="#2b7729" stroke-miterlimit="10" stroke-width="4"/>
  <path id="Контур_11135" data-name="Контур 11135" d="M358.8,283.136l1.416-.258-.454-17.148-6.562,1.184Z" transform="translate(-274.218 -265.73)" fill="#2b7729"/>
  <path id="Контур_11136" data-name="Контур 11136" d="M340.83,275.3l8.529,10.631.988-.57-4.932-12.705Z" transform="translate(-272.861 -266.49)" fill="#2b7729"/>
  <path id="Контур_11137" data-name="Контур 11137" d="M369.28,268.43l-.16,13.631,1.122.187,4.265-12.954Z" transform="translate(-275.964 -266.026)" fill="#2b7729"/>
  <path id="Контур_11138" data-name="Контур 11138" d="M333.45,285.8l10.613,5.084.6-.855-8.44-8.191Z" transform="translate(-272.052 -267.497)" fill="#2b7729"/>
  <path id="Контур_11139" data-name="Контур 11139" d="M380.722,273.71,375.7,284.35l.855.588,8.147-8.485Z" transform="translate(-276.685 -266.605)" fill="#2b7729"/>
</svg>
