<svg xmlns="http://www.w3.org/2000/svg" width="308.072" height="166.055" viewBox="0 0 308.072 166.055">
  <g id="Сгруппировать_4500" data-name="Сгруппировать 4500" transform="translate(-1417.132 -790.029)">
    <g id="_384866656" transform="translate(1417.132 790.029)">
      <path id="_384866872" d="M614.722,336.895v81.559a5.19,5.19,0,0,1-5.189,5.189H490.181a5.189,5.189,0,0,1-5.189-5.189v-85.59a49.994,49.994,0,0,1-18.4-13.136,33.506,33.506,0,0,1-8.5-21.891c0-11.419,6.2-21.652,16.211-28.966,9.546-6.971,22.63-11.282,36.989-11.282a68.334,68.334,0,0,1,21.353,3.353,57.039,57.039,0,0,1,14.74,7.272,61.725,61.725,0,0,1,15.481-7.3,73.207,73.207,0,0,1,22.013-3.323c15.34,0,29.313,4.6,39.5,12.042,10.659,7.783,17.251,18.665,17.251,30.8a35.379,35.379,0,0,1-8.375,22.464A52.044,52.044,0,0,1,614.722,336.895Z" transform="translate(-458.087 -257.588)" fill="#ececec"/>
      <path id="_384866584" d="M753.728,725.939v-.052l.054-.026v-.009a86.519,86.519,0,0,1-38.069,8.4c-17.306,0-33.033-4.618-44.685-12.148a61.594,61.594,0,0,1-47.03-.24v.1c15.521,10.993,29.472,12.208,47.03,5.09,28.867,18.122,53.888,12.707,82.7-1.12Z" transform="translate(-597.094 -646.58)" fill="#b4b4b4" fill-rule="evenodd"/>
      <path id="_384866704" d="M976.724,322.894A35.378,35.378,0,0,0,985.1,300.43c0-12.135-6.592-23.017-17.251-30.8-10.189-7.44-24.161-12.042-39.5-12.042a73.2,73.2,0,0,0-22.013,3.323,63.7,63.7,0,0,0-11.085,4.669c-16.412,9.319-27.21,25.142-27.21,43.094a45.429,45.429,0,0,0,7.279,24.517l.177-.074c11.652,7.53,27.379,12.148,44.685,12.148a86.52,86.52,0,0,0,38.069-8.4v.009a52.014,52.014,0,0,0,18.476-13.974Z" transform="translate(-801.559 -257.587)" fill="#f8f8f8" fill-rule="evenodd"/>
    </g>
    <g id="sushi" transform="translate(1728.461 878.115) rotate(135)">
      <path id="Контур_11121" data-name="Контур 11121" d="M0,8.689,28.236,36.924l8.688-8.688L8.688,0Zm0,0" transform="translate(0.002 87.14)" fill="#2b7729"/>
      <path id="Контур_11122" data-name="Контур 11122" d="M4.344,106.426,0,102.082,97.738,0l6.516,6.516Zm0,0" transform="translate(0 4.607)" fill="#ffc400"/>
      <path id="Контур_11123" data-name="Контур 11123" d="M4.344,104.254,0,99.91,99.91,0l6.516,6.516Zm0,0" transform="translate(13.032 19.811)" fill="#ffc400"/>
      <path id="Контур_11124" data-name="Контур 11124" d="M0,4.607l6.516,6.516L9.774,7.865A4.607,4.607,0,0,0,3.258,1.349Zm0,0" transform="translate(97.738 0)" fill="#ffc400"/>
      <path id="Контур_11125" data-name="Контур 11125" d="M0,4.607,3.258,1.349A4.607,4.607,0,0,1,9.774,7.865L6.516,11.123Zm0,0" transform="translate(112.941 15.204)" fill="#ffc400"/>
      <g id="Сгруппировать_4525" data-name="Сгруппировать 4525" transform="translate(91.426 4.607)">
        <path id="Контур_11126" data-name="Контур 11126" d="M6.311,0l6.516,6.516L6.311,13.032,0,6.516Zm0,0" transform="translate(0 0)" fill="#e6364b"/>
        <path id="Контур_11127" data-name="Контур 11127" d="M6.516,0l6.516,6.516L6.379,12.964,0,6.516Zm0,0" transform="translate(14.999 15.204)" fill="#e6364b"/>
      </g>
    </g>
  </g>
</svg>
