<svg xmlns="http://www.w3.org/2000/svg" width="234.708" height="43.965" viewBox="0 0 234.708 43.965">
  <g id="Слой_2" data-name="Слой 2" transform="translate(-93.43 -126.16)">
    <g id="Layer_1" data-name="Layer 1">
      <path id="Контур_11135" data-name="Контур 11135" d="M579.72,167.048v.766l.3.141.006,0,.518.14.126.165.462.217v-1.029h.844l-.156-.348-.148.024h0v-2.445l-.869-1.172h-1.08Z" transform="translate(-438.008 -33.642)" fill="#fff"/>
      <path id="Контур_11136" data-name="Контур 11136" d="M635.9,329.66l-2.7.946-.888.311,5.342,1.982.15.056.1.124.445.538,1.94-1.348-.282-.37Z" transform="translate(-485.377 -183.295)" fill="#fff"/>
      <path id="Контур_11137" data-name="Контур 11137" d="M727.683,245.088l.076-.161-.54-.667h-2.36l-.134.253-.575,1.077,1.754.59,1.433-.363.1-.208,2.759.274.934-.44Z" transform="translate(-568.098 -106.374)" fill="#fff"/>
      <path id="Контур_11138" data-name="Контур 11138" d="M815.875,232.039l-2.613-.014-.44-.515h-3.893l1.691,1.456-2.139.938-.411.193,7.313.751Z" transform="translate(-643.687 -94.89)" fill="#fff"/>
      <path id="Контур_11139" data-name="Контур 11139" d="M638.12,244.35l.346,2.845h4.728l-.657-.728h-.756l-.794-.748h-1.88l-.657-.742,2.3,0Z" transform="translate(-490.61 -106.455)" fill="#fff"/>
      <path id="Контур_11140" data-name="Контур 11140" d="M184.356,137.646l-3.376-.429-7.844-1.752L172,135.459l-.812-.722h-5l-.616-.687H153.515l.846,1.132h-.524L152.3,134.6l-5.505-2.135h-.706l-2.184-4.479h-3.684l-1.177-.431-1.446,1.326.918,1.282-.6,2.211h-6.083v-.993h-3.415l-.477-.455H126.7l-2.921-3.544h-7.787l-1.084-1.223H100.875l3.654,2.252H103.4l6,3.7h1.967l1.467,1.557h2.543v1.39h3.441l.143.133h2.184v.359l4.883,1.183,1.061-.1,9.342,1.624,2.605,3.318h-.128l-.876-.737H127.265l2.687,2.581h5.434l-.959,1.323-7.8-.975-.852.993H113.856l-2.623,2.1H96l2.449,1.94H93.43L97.3,151.76h3.042l1.6,1.051h6.576l-1.269,1.415h10.532l3.017-3.041v7.723h-4.212l-1.191-.513-2.657,1.469-.435,1.553-1.375,1.857h-3.145l-3.147,6.851h8.936l.512-.695h2.3l3.716-4.6H130.7l.912-.7h3.341l4-3.35,1.191.972H152.3l.987,1.334H166.66l-2.879,6.387h6.58l1.3-.736h1.43l3.088-2.126,2.352-6-2.718-3.078h-1.1l-.553-.7h-5.943l.629-1.107-1.722-3.152,3.078-3.124,2.046-3.078.084.065,6.7-1.489.767.62,5.791-1.434Zm-.559,5.914-3.428.852-.335.082-.268-.219-.487-.4-6.394,1.428-.318.07-.257-.2-.3-.233-2.546,3.826-.037.056-.047.048-3.338,3.382-.147.15,1.81,3.316-1.191,2.115h7.163l.209.262.344.433h1.132l2.019,2.284-2.019,5.154-2.581,1.779H171.4l-1.063.6-.071.041-.16.09h-4.786l.443-.981,1.878-4.164.185-.409h2.61l.316-.609-.339-.225H153.784l-.209-.281-.777-1.052H140.5l-.193-.158-1.356-1.111-4.361,3.646h-3.31l-.727.553-.186.142H119.616L115.9,168.44h-2.331l-.3.412-.209.283h-6.883l.452-.985,1.6-3.475.186-.405h3.007l1.782-2.4.3-1.049.078-.28.254-.14,1.315-.728.3-.165.313.134.62.267H121.2l.586-.489h0v-8.2h0v-.256l.167-.2,1.082-1.267h-1.964l-3.708,3.74h-7.888l1.268-1.415h-8.5l-1.6-1.05h-3l-1.266-.968h6.341l-1.457-1.233H99.742l-.894-.708h12.728l2.624-2.1h12.024l.386-.452.172-.2.243-.285.371.047,8.693,1.086H140.5l1.092-2.146h-1.211l-.894.744h-3.7l.44-.607h3.259l.916-.682h1.225l-.166-.211h-2.944l-.794-.624H130.35l-.617-.6h7.943l.881.727h2.527l-4.1-5.222-8.92-1.552-.576-.1h0v-.1l-1.3.127-.083.009-.081-.02-3.5-.849-.379-.091h0v-.39h0V134.2h-2.79l-.143-.134h-2.84v-1.39h-3.108l-.206-.218-1.261-1.337h-2.115l-.167-.1-.522-.322L106.9,129.4h4.488l-.309-.328H107.5l-.168-.1-.867-.535-2.085-1.291H114.46l.208.233.877.993h7.765l.208.253,1.84,2.234.557.676-.765.378h2.392l.2.2.271.26h2.827v.993h7.724l.2.339.01.016H139.8l-1.068-.559.87-3.193-.681-.95.352-.324.774.283h3.241l2.067,4.24-1.515.24H146.6l.121.047,5.212,2.02,1.717.642h2.687l-.845-1.132h9.631l.61.687h5.073l.81.721,1.33.007h.075l.072.016,7.716,1.724,2.2.28.5.064.1.5.7,3.719.122.646Z" fill="#fff"/>
      <path id="Контур_11141" data-name="Контур 11141" d="M392.5,207.1H387.65v.18l3.5.849L392.5,208v-.9Z" transform="translate(-265.008 -72.904)" fill="#fff"/>
      <path id="Контур_11142" data-name="Контур 11142" d="M297.31,243.691l.894.687,6.72-1.489.749.6,3.428-.849-.7-3.719-2.234-.284-7.744-1.73-.637,2.866,7.058.717.4-2.067.315.07.265.06-.894,4.324-.568.126.4-2.043-15.8-1.562.894-.44h0l-.926.436h.013l-11.4,5.357.841.532-1.357.475-.264.092L280.5,247.9l.737.966,4.2,5.5,2.348-.646.846-.728.422.324-3.053,4-6.156-4.609-1.509-1.828-.794-.961-6.016-2.232-1.034.361-.228.08-.228-.079-2.865-.993-.013,0-.014,0-.821-.322-.712-.28.022-.043h-4.1l-8.737-1.092-.172.2-2.457,2.879-2.207,2.582v8.53l-1.034.853H241.7l-.752-.324-1.315.721-.325,1.176-2.067,2.789h-2.916l-1.6,3.475h5.448l3.9-5.3H255.6l6.106-4.649h2.581l1.926,1.579h12.4l.986,1.333h16.481l1.038.685-.794,1.536h-2.581l-1.878,4.164h3.522l.072-.041,3.5-1.981,1.688-4.933-1.832-2.3H290.5l-.33-.405,1.456-2.506-1.456-2.991.848-.861h0l3.333-3.381Zm1.414-5.059.976-.466h.646l.159.9Z" transform="translate(-125.469 -99.754)" fill="#fff"/>
      <path id="Контур_11143" data-name="Контур 11143" d="M233.658,145.734l1.467,1.556h3.846l.382.4h2l.39-.193-1-1.212h1.033l1.353,1.4h2.493l-.432-.477,1.192-.591-1.843-2.235h-7.751l-1.083-1.224H228.39l.868.535h3.685l1.619,1.718h-3.644l.522.322Z" transform="translate(-121.56 -15.312)" fill="#fff"/>
      <path id="Контур_11144" data-name="Контур 11144" d="M210.947,151.71l-.7-3.719-.1-.5-.5-.064-2.2-.28-7.715-1.728-.072-.016h-.075l-1.33-.007-.81-.721h-5.073l-.61-.687h-9.631l.845,1.132h-2.686l-1.714-.649-5.212-2.02-.121-.047h-2.771l1.515-.24-2.067-4.24h-3.241l-.774-.283-.352.332.681.95-.87,3.193,1.068.559H165.4l-.01-.016-.2-.339h-7.724v-.993h-2.823l-.275-.264-.2-.2h-2.389l.764-.378-.56-.672-1.84-2.239-.208-.253h-7.765l-.877-.993-.208-.233H131.012l2.085,1.291.867.535.168.1h3.583l.309.328h-4.488l2.09,1.291.522.322.167.1h2.115l1.261,1.337.206.218H143v1.39h2.84l.143.134h2.791v.18h0v.39h0l.379.091,3.5.849.081.02.083-.009,1.3-.127v.1h0l.576.1,8.92,1.552,4.1,5.222H165.2l-.885-.727h-7.943l.617.591h7.38l.794.624H168.1l.166.21h-1.227l-.916.682h-3.259l-.44.607h3.7l.894-.744h1.211l-1.092,2.146h-4.409l-8.693-1.086-.371-.047-.243.294-.172.2-.386.452H140.84l-2.624,2.1H125.487l.894.708h1.5l1.457,1.233H123l1.266.968h3l1.6,1.051h8.5l-1.262,1.417H144l3.708-3.74h1.964l-1.086,1.272-.167.2v.256h0v8.2h0l-.588.479h-4.821l-.62-.267-.313-.134-.3.165-1.315.728-.254.14-.078.28-.3,1.049-1.782,2.4h-3.005l-.186.4-1.6,3.475-.452.993h6.883l.208-.283.3-.412h2.331l3.713-4.6H157l.186-.142.727-.553h3.31l4.357-3.646,1.356,1.111.193.158h12.3l.777,1.052.209.281h16.626l.339.225-.316.6h-2.61l-.185.409-1.878,4.164-.443.981h4.781l.16-.09.072-.041,1.068-.608h1.383L202,174.919l2.021-5.151L202,167.484h-1.132l-.344-.433-.208-.262h-7.164l1.191-2.115-1.81-3.316.148-.149,3.333-3.384.047-.048.037-.056,2.546-3.826.3.233.257.2.318-.07,6.393-1.42.487.4.269.216.335-.082,3.428-.849.638-.158Zm-31.342,7.565-.445-.538-.1-.124-.15-.056-5.342-1.986.888-.311,2.7-.946,4.105,2.238.282.37Zm-10.59-6.516h.007l.274-.435,4.755-.04-.01-.528.01.083,3.9,2.466-.856.3-2.868,1-2.562.894h0l-.243.085-2.865-.993-.822-.323Zm-16.24-8.58-3.5-.849v-.18h4.847v.894Zm2.042-.122v-1.041H164.8l.211.354h1.39l1.269,1.314.68-.788,1.668.788.728-.894,1.338.566-.563-1.253h1.6l5.209,2.022h0l4.321,1.637-.017.032c-.057.1-.246.454-.452.846l-.189.354-8.34-1.986-.4-.728.538,4.411h0l.242,1.986H168.8l-.174-.166H168.6l-4.6-5.858Zm19.659,3.423.657.742h1.878l.794.748h.753l.657.728h-4.725l-.347-2.849,2.634.626Zm11.5.708-.1.209-1.433.363-1.754-.59.575-1.077.134-.253h2.36l.538.669-.076.161,3.447.354-.938.437Zm5.461-.22,2.139-.938-1.688-1.456h3.893l.44.515,2.613.014-.491,2.808-7.313-.75Zm-22.01-9.145.87,1.173v2.444h0l.148-.024.156.348h-.844v1.029l-.462-.217-.125-.164-.518-.14h-.006l-.3-.141v-4.307Zm-29.786.232-1.619-1.718h-3.688l-.868-.534h7.317l1.083,1.223h7.751l1.843,2.235-1.191.591.432.477H148.2l-1.353-1.4h-1.033l1,1.211-.386.193h-2l-.382-.4H140.2l-1.467-1.556h-2.217l-.522-.322Zm52.544,21.667-.848.861,1.457,2.991-1.457,2.506.33.405h8.313l1.832,2.3-1.688,4.933-3.5,1.978-.072.041h-3.522l1.878-4.164h2.581l.794-1.536-1.034-.688H180.766l-.986-1.333h-12.4l-1.926-1.577h-2.581l-6.106,4.649H143.24l-3.9,5.3h-5.448l1.6-3.475H138.4l2.071-2.8.325-1.176,1.315-.728.752.324h5.214l1.034-.846v-8.53l2.208-2.581,2.457-2.879.172-.2,8.737,1.092h4.1l-.022.043.712.28.822.324.014,0,.013,0,2.865.993.228.079.228-.08,1.035-.361,6.013,2.229.794.961L181,161.9l6.156,4.609,3.053-4-.422-.324-.846.728-2.348.646-4.2-5.5-.737-.966-3.748-2.04.264-.092,1.357-.475-.838-.533,11.4-5.361h-.013l.926-.436h0l-.891.444,15.794,1.567-.4,2.043.568-.126.894-4.324-.265-.06-.315-.07L206,149.692l-7.058-.723.637-2.866,7.744,1.73,2.234.284.7,3.719-3.428.849-.749-.6-6.72,1.489-.894-.687-2.959,4.453Z" transform="translate(-26.634 -8.953)" fill="#018050"/>
      <path id="Контур_11145" data-name="Контур 11145" d="M898.4,249.57l-.976.466,1.781.434-.159-.9Z" transform="translate(-724.165 -111.157)" fill="#018050"/>
      <path id="Контур_11146" data-name="Контур 11146" d="M457.279,214.25l.174.163h5.232l-.242-1.986h0l-.537-4.407.4.728,8.34,1.986.189-.354c.206-.4.4-.742.452-.846l.017-.032-4.322-1.641h0l-5.214-2.021h-1.6l.563,1.253-1.338-.566-.728.894L457,206.631l-.68.788-1.269-1.314h-1.39l-.206-.355H443.47v1.041l9.187,1.6,4.6,5.858Z" transform="translate(-315.286 -71.688)" fill="#fff"/>
      <path id="Контур_11147" data-name="Контур 11147" d="M574.382,297.622l2.865.992.242-.085h0l2.562-.9,2.868-1,.856-.3-3.9-2.465-.01-.083.01.528-4.755.04-.274.435h-.007L573.56,297.3Z" transform="translate(-432.46 -150.978)" fill="#fff"/>
      <path id="Контур_11148" data-name="Контур 11148" d="M191.892,633.71H187.84v-3.28h11.848v3.28h-4.052v10.227h-3.744Z" transform="translate(12.522 -488.514)" fill="red"/>
      <path id="Контур_11149" data-name="Контур 11149" d="M267.159,629.82h3.609l5.749,13.6h-4.013l-.984-2.412h-5.21l-.965,2.412H261.41Zm3.28,8.278-1.5-3.84-1.525,3.84Z" transform="translate(-49.412 -488)" fill="red"/>
      <path id="Контур_11150" data-name="Контур 11150" d="M362.06,643.822l.251-2.875a6.407,6.407,0,0,0,.868.078c1.061,0,2.064-.541,2.064-8.721V630.43h10.38v13.507h-3.742V633.71h-3.146v.522c0,8.239-1.814,9.9-4.438,9.9A8.529,8.529,0,0,1,362.06,643.822Z" transform="translate(-134.143 -488.514)" fill="red"/>
      <path id="Контур_11151" data-name="Контур 11151" d="M509,630.43h12.1v13.507h-3.752V633.71h-4.612v10.227H509Z" transform="translate(-257.843 -488.514)" fill="red"/>
      <path id="Контур_11152" data-name="Контур 11152" d="M606.67,630.43h3.7v7.6l5.229-7.6H619.1v13.507h-3.7v-7.6l-5.229,7.6H606.67Z" transform="translate(-340.065 -488.514)" fill="red"/>
      <path id="Контур_11153" data-name="Контур 11153" d="M716.494,643.937H706.46V630.43H710.2v10.227h4.612V630.43h3.75v10.227h1.525l-.424,5.982H716.5Z" transform="translate(-424.072 -488.514)" fill="red"/>
      <path id="Контур_11154" data-name="Контур 11154" d="M816.774,643.937H806.74V630.43h3.744v10.227H815.1V630.43h3.742v10.227h1.525l-.424,5.982h-3.163Z" transform="translate(-508.492 -488.514)" fill="red"/>
      <path id="Контур_11155" data-name="Контур 11155" d="M905.941,629.82h3.608l5.751,13.6h-4.014l-.984-2.412h-5.21l-.965,2.412H900.19Zm3.28,8.278-1.506-3.84-1.525,3.84Z" transform="translate(-587.161 -488)" fill="red"/>
    </g>
  </g>
</svg>
