<svg xmlns="http://www.w3.org/2000/svg" width="62" height="62.001" viewBox="0 0 62 62.001">
  <g id="love" transform="translate(-95 74)">
    <g id="hearts" transform="translate(94 -75)">
      <path id="Контур_11155" data-name="Контур 11155" d="M60,17H57a2.992,2.992,0,0,0-2.556,1.451l-10.854-5.2a2.764,2.764,0,0,0-2.81.3L22.73,27.171a4.335,4.335,0,0,0-.71,6.259,4.4,4.4,0,0,0,6.02.68l7.78-5.91a5.933,5.933,0,0,1,1.56-8.52,6.093,6.093,0,0,1,8.05,1.23l1.72,2.1a1,1,0,0,1-1.55,1.27l-1.72-2.1a4.084,4.084,0,0,0-5.41-.82,3.994,3.994,0,0,0-1.78,2.79,3.935,3.935,0,0,0,.72,2.84c.251.358.393.47,2.66,3.069a2.779,2.779,0,0,0,2.08.94H54.78A2.981,2.981,0,0,0,57,32h3a3,3,0,0,0,3-3V20A3,3,0,0,0,60,17Zm1,12a1,1,0,0,1-1,1H57a1,1,0,0,1-1-1V20a1,1,0,0,1,1-1h3a1,1,0,0,1,1,1Z" fill="#bad3ba"/>
      <path id="Контур_11156" data-name="Контур 11156" d="M47.96,41.89,40.18,47.8a5.933,5.933,0,0,1-1.56,8.52,6.093,6.093,0,0,1-8.05-1.23l-1.72-2.1a1,1,0,0,1,1.55-1.27l1.72,2.1a4.084,4.084,0,0,0,5.41.82,3.943,3.943,0,0,0,.83-5.93l-2.43-2.77A2.779,2.779,0,0,0,33.85,45H21.22A2.981,2.981,0,0,0,19,44H16a3,3,0,0,0-3,3v9a3,3,0,0,0,3,3h3a2.992,2.992,0,0,0,2.556-1.451l10.854,5.2a2.764,2.764,0,0,0,2.81-.3l18.05-13.62a4.335,4.335,0,0,0,.71-6.259A4.394,4.394,0,0,0,47.96,41.89ZM20,56a1,1,0,0,1-1,1H16a1,1,0,0,1-1-1V47a1,1,0,0,1,1-1h3a1,1,0,0,1,1,1Z" fill="#bad3ba"/>
      <path id="Контур_11157" data-name="Контур 11157" d="M12.7,5.525A11.062,11.062,0,0,0,5,16.1a17.291,17.291,0,0,0,.513,4.14,1,1,0,1,0,1.942-.478A15.319,15.319,0,0,1,7,16.1a9.067,9.067,0,0,1,6.306-8.67,1,1,0,0,0-.611-1.9Z" fill="#151a6a"/>
      <path id="Контур_11158" data-name="Контур 11158" d="M45.874,30.541C49.262,25.771,51,20.918,51,16.1A15.1,15.1,0,0,0,35.94,1,14.914,14.914,0,0,0,26,4.757,14.914,14.914,0,0,0,16.06,1,15.1,15.1,0,0,0,1,16.1C1,34.124,24.542,46.377,25.544,46.891a1.008,1.008,0,0,0,.911,0,58.706,58.706,0,0,0,5.9-3.606,25.528,25.528,0,0,0,5.2,3.611,1,1,0,0,0,.888,0C38.835,46.7,48,42.073,48,35.126a6.049,6.049,0,0,0-2.126-4.585ZM26,44.866C22.732,43.072,3,31.6,3,16.1A13.1,13.1,0,0,1,16.06,3a12.943,12.943,0,0,1,9.232,3.836,1.028,1.028,0,0,0,1.416,0A12.943,12.943,0,0,1,35.94,3,13.1,13.1,0,0,1,49,16.1c0,4.428-1.636,8.927-4.827,13.385A6.4,6.4,0,0,0,38,30.2,6.324,6.324,0,0,0,34.272,29,6.207,6.207,0,0,0,28,35.126a10.285,10.285,0,0,0,2.914,6.718C28.641,43.384,26.814,44.422,26,44.866Zm12,0c-1.743-.97-8-4.8-8-9.739A4.206,4.206,0,0,1,34.272,31,4.32,4.32,0,0,1,37.3,32.219a1,1,0,0,0,1.394,0A4.32,4.32,0,0,1,41.728,31,4.206,4.206,0,0,1,46,35.126c0,4.937-6.257,8.774-8,9.739Z"/>
    </g>
  </g>
</svg>
