<svg id="open-mail-good" xmlns="http://www.w3.org/2000/svg" width="156" height="156" viewBox="0 0 156 156">
  <g id="Сгруппировать_4422" data-name="Сгруппировать 4422" transform="translate(2.438 2.438)">
    <path id="Контур_11076" data-name="Контур 11076" d="M125.173,61.938l.292.439C112.3,70.688,94.119,82.413,81.3,91.188H52.048C39.251,82.413,21.042,70.664,7.88,62.4l.293-.463V1h117V61.938Z" transform="translate(8.89 -1)" fill="#f1f2f2"/>
    <path id="Контур_11077" data-name="Контур 11077" d="M56,22H73.038c-.317,0-7.215,4.192-16.746,10.189L56,31.75Z" transform="translate(78.063 29.188)" fill="#f1e9e3"/>
    <path id="Контур_11078" data-name="Контур 11078" d="M18.048,22v9.75l-.292.463C8.225,26.192,1.327,22,1.01,22Z" transform="translate(-0.986 29.188)" fill="#f1e9e3"/>
    <path id="Контур_11079" data-name="Контур 11079" d="M56,15,73.038,32.063H56Z" transform="translate(78.063 19.125)" fill="#f1e9e3"/>
    <path id="Контур_11080" data-name="Контур 11080" d="M18.048,15V32.063H1.01Z" transform="translate(-0.986 19.125)" fill="#f1e9e3"/>
    <path id="Контур_11081" data-name="Контур 11081" d="M61.938,61h29.25c12.821-8.775,31.005-20.5,44.168-28.811C144.886,26.193,151.784,22,152.1,22h.024v95.063a4.889,4.889,0,0,1-4.875,4.875H5.875A4.889,4.889,0,0,1,1,117.063V22h.024c.317,0,7.215,4.192,16.746,10.213C30.932,40.476,49.141,52.225,61.938,61Z" transform="translate(-1 29.188)" fill="#f8f5f4"/>
  </g>
  <g id="Сгруппировать_4426" data-name="Сгруппировать 4426">
    <g id="Сгруппировать_4423" data-name="Сгруппировать 4423" transform="translate(65.813 2.438)">
      <ellipse id="Эллипс_678" data-name="Эллипс 678" cx="29" cy="29.5" rx="29" ry="29.5" transform="translate(0.188 -0.438)" fill="#ffd311"/>
    </g>
    <g id="Сгруппировать_4424" data-name="Сгруппировать 4424" transform="translate(80.438 17.063)">
      <circle id="Эллипс_679" data-name="Эллипс 679" cx="5" cy="5" r="5" transform="translate(21.563 -0.063)" fill="#f1f2f2"/>
      <circle id="Эллипс_680" data-name="Эллипс 680" cx="5" cy="5" r="5" transform="translate(-0.438 -0.063)" fill="#f1f2f2"/>
    </g>
    <g id="Сгруппировать_4425" data-name="Сгруппировать 4425">
      <path id="Контур_11082" data-name="Контур 11082" d="M155.966,53.371a2.628,2.628,0,0,0-.044-.31,2.423,2.423,0,0,0-.132-.366,2.13,2.13,0,0,0-.115-.266,2.3,2.3,0,0,0-.293-.395c-.037-.041-.058-.093-.1-.134l-.041-.041-.012-.012L138.938,35.553V2.438A2.435,2.435,0,0,0,136.5,0H119.438V4.875h14.625V62.658l-4.115,2.613c-6.959,4.422-24.441,15.6-38.079,24.916H64.131c-13.616-9.306-31.1-20.482-38.057-24.906l-4.136-2.625V4.875H68.25V0H19.5a2.435,2.435,0,0,0-2.437,2.438V35.553L.773,51.843a.147.147,0,0,1-.02.02L.714,51.9c-.037.037-.056.083-.09.119a2.466,2.466,0,0,0-.3.41,2.431,2.431,0,0,0-.112.258,2.233,2.233,0,0,0-.132.371,2.628,2.628,0,0,0-.044.31c-.007.088-.034.168-.034.256v95.063A7.321,7.321,0,0,0,7.313,156H148.688A7.321,7.321,0,0,0,156,148.688V53.625C156,53.537,155.973,53.457,155.966,53.371Zm-8.288-2.184h-8.741V42.447Zm-8.741,4.875h5.587c-1.567.975-3.417,2.135-5.587,3.508Zm-127.457,0h5.582v3.505C14.9,58.2,13.046,57.035,11.481,56.063Zm5.582-13.616v8.741H8.322ZM151.125,148.688a2.438,2.438,0,0,1-2.437,2.438H7.313a2.438,2.438,0,0,1-2.437-2.437V57.8c9.365,5.667,36.034,22.515,54.693,35.185L27.527,125.027l3.447,3.447L64.384,95.063H91.616l33.411,33.411,3.447-3.447L96.432,92.986C115.089,80.32,141.758,63.473,151.125,57.8Z" fill="#50463f"/>
      <rect id="Прямоугольник_6582" data-name="Прямоугольник 6582" width="22" height="5" transform="translate(34 29)" fill="#50463f"/>
      <rect id="Прямоугольник_6583" data-name="Прямоугольник 6583" width="22" height="5" transform="translate(34 41)" fill="#50463f"/>
      <rect id="Прямоугольник_6584" data-name="Прямоугольник 6584" width="29" height="5" transform="translate(34 54)" fill="#50463f"/>
      <rect id="Прямоугольник_6585" data-name="Прямоугольник 6585" width="22" height="5" transform="translate(34 17)" fill="#50463f"/>
      <path id="Контур_11083" data-name="Контур 11083" d="M57.688,63.375A31.688,31.688,0,1,0,26,31.688,31.724,31.724,0,0,0,57.688,63.375Zm0-58.5A26.813,26.813,0,1,1,30.875,31.688,26.844,26.844,0,0,1,57.688,4.875Z" transform="translate(37.375)" fill="#50463f"/>
      <path id="Контур_11084" data-name="Контур 11084" d="M39.313,20.625A7.313,7.313,0,1,0,32,13.313,7.321,7.321,0,0,0,39.313,20.625Zm0-9.75a2.438,2.438,0,1,1-2.437,2.438A2.438,2.438,0,0,1,39.313,10.875Z" transform="translate(46 8.625)" fill="#50463f"/>
      <path id="Контур_11085" data-name="Контур 11085" d="M48.313,20.625A7.313,7.313,0,1,0,41,13.313,7.321,7.321,0,0,0,48.313,20.625Zm0-9.75a2.438,2.438,0,1,1-2.437,2.438A2.438,2.438,0,0,1,48.313,10.875Z" transform="translate(58.938 8.625)" fill="#50463f"/>
      <path id="Контур_11086" data-name="Контур 11086" d="M37.875,15H33a14.625,14.625,0,0,0,29.25,0H57.375a9.75,9.75,0,0,1-19.5,0Z" transform="translate(47.438 21.563)" fill="#50463f"/>
    </g>
  </g>
</svg>
