<svg xmlns="http://www.w3.org/2000/svg" width="165.153" height="30" viewBox="0 0 165.153 30">
  <g id="Group_3279" data-name="Group 3279" transform="translate(-2779 22624.002)">
    <g id="Maestro_2016" transform="translate(2779 -22623.996)">
      <g id="Group_3278" data-name="Group 3278" transform="translate(0 0)">
        <g id="Group_3273" data-name="Group 3273" transform="translate(37.193 18.836)">
          <path id="Path_5040" data-name="Path 5040" d="M-4.2-1.937V-2.4h-.12l-.14.318L-4.6-2.4h-.121v.463h.086v-.347l.13.3h.089l.13-.3v.348Zm-.765,0v-.386h.154V-2.4H-5.2v.077h.154v.386Z" transform="translate(5.203 2.4)" fill="#0099df"/>
        </g>
        <path id="Path_5041" data-name="Path 5041" d="M3582.295,2166.319h-10.428V2147.58h10.428Z" transform="translate(-3557.801 -2145.027)" fill="#6c6bbd"/>
        <g id="Group_3274" data-name="Group 3274">
          <path id="Path_5042" data-name="Path 5042" d="M-61.66-49.888a11.9,11.9,0,0,1,4.55-9.371A11.867,11.867,0,0,0-64.476-61.8,11.919,11.919,0,0,0-76.392-49.888,11.919,11.919,0,0,0-64.474-37.972a11.867,11.867,0,0,0,7.366-2.545,11.9,11.9,0,0,1-4.55-9.371" transform="translate(76.392 61.804)" fill="#eb001b"/>
        </g>
        <g id="Group_3275" data-name="Group 3275" transform="translate(19.274 0.003)">
          <path id="Path_5043" data-name="Path 5043" d="M-80.716-49.887A11.919,11.919,0,0,1-92.634-37.971,11.871,11.871,0,0,1-100-40.516a11.9,11.9,0,0,0,4.55-9.371A11.9,11.9,0,0,0-100-59.255,11.871,11.871,0,0,1-92.633-61.8,11.919,11.919,0,0,1-80.716-49.889" transform="translate(100 61.8)" fill="#0099df"/>
        </g>
        <g id="Group_3276" data-name="Group 3276" transform="translate(6.291 25.701)">
          <path id="Path_5044" data-name="Path 5044" d="M-90.889-3.685a1.465,1.465,0,0,1,.49.086l-.212.649a1.116,1.116,0,0,0-.43-.077c-.45,0-.676.291-.676.814V-.44H-92.4V-3.6h.682v.386a.934.934,0,0,1,.834-.463m-2.545.709h-1.123v1.424c0,.318.112.53.457.53a1.268,1.268,0,0,0,.605-.182l.2.589a1.615,1.615,0,0,1-.86.245c-.814,0-1.1-.434-1.1-1.169V-2.977h-.642v-.629h.642v-.96h.694v.96h1.125Zm-8.813.676a.816.816,0,0,1,.841-.771.787.787,0,0,1,.8.771Zm2.357.278a1.518,1.518,0,0,0-.385-1.162,1.518,1.518,0,0,0-1.118-.5,1.546,1.546,0,0,0-1.156.482,1.546,1.546,0,0,0-.42,1.18,1.561,1.561,0,0,0,.445,1.189,1.561,1.561,0,0,0,1.181.465,1.923,1.923,0,0,0,1.295-.443l-.338-.51a1.5,1.5,0,0,1-.92.331.879.879,0,0,1-.946-.771h2.35c.007-.086.014-.172.014-.265m3.025-.771a2.03,2.03,0,0,0-.986-.272c-.377,0-.6.14-.6.372,0,.211.238.271.536.308l.325.046c.689.1,1.106.391,1.106.947,0,.6-.53,1.033-1.443,1.033A2.283,2.283,0,0,1-99.3-.773l.325-.54a1.688,1.688,0,0,0,1.053.331c.47,0,.722-.139.722-.386,0-.178-.179-.278-.556-.33l-.325-.046c-.709-.1-1.093-.417-1.093-.934,0-.629.517-1.013,1.318-1.013a2.365,2.365,0,0,1,1.291.331Zm8.491-.231a1.043,1.043,0,0,0-.395.077.948.948,0,0,0-.315.209.97.97,0,0,0-.209.322A1.089,1.089,0,0,0-89.368-2a1.085,1.085,0,0,0,.077.413.97.97,0,0,0,.21.312.948.948,0,0,0,.315.209,1.029,1.029,0,0,0,.395.077,1.026,1.026,0,0,0,.395-.077.946.946,0,0,0,.315-.209.963.963,0,0,0,.211-.322,1.086,1.086,0,0,0,.077-.413,1.089,1.089,0,0,0-.077-.413.963.963,0,0,0-.211-.322.946.946,0,0,0-.317-.209,1.04,1.04,0,0,0-.395-.077m0-.654a1.783,1.783,0,0,1,.682.128,1.656,1.656,0,0,1,.54.352,1.609,1.609,0,0,1,.359.529,1.684,1.684,0,0,1,.13.664,1.684,1.684,0,0,1-.13.664,1.613,1.613,0,0,1-.359.53,1.668,1.668,0,0,1-.54.352,1.8,1.8,0,0,1-.682.127,1.8,1.8,0,0,1-.682-.127,1.649,1.649,0,0,1-.54-.352,1.632,1.632,0,0,1-.357-.53,1.684,1.684,0,0,1-.13-.664,1.684,1.684,0,0,1,.13-.664,1.629,1.629,0,0,1,.357-.529,1.638,1.638,0,0,1,.54-.352,1.783,1.783,0,0,1,.682-.128m-17.9,1.662a.95.95,0,0,1,.258-.717.95.95,0,0,1,.7-.3.949.949,0,0,1,.7.3.949.949,0,0,1,.255.715.949.949,0,0,1-.255.715.949.949,0,0,1-.7.3.949.949,0,0,1-.7-.3.949.949,0,0,1-.258-.717m2.563,0V-3.606h-.688v.386a1.2,1.2,0,0,0-1-.463,1.586,1.586,0,0,0-1.147.492,1.585,1.585,0,0,0-.435,1.17,1.585,1.585,0,0,0,.437,1.169,1.585,1.585,0,0,0,1.148.491,1.2,1.2,0,0,0,1-.463v.386h.688Zm-3.883,1.582V-2.428a1.178,1.178,0,0,0-.338-.91,1.178,1.178,0,0,0-.907-.347,1.225,1.225,0,0,0-1.113.563,1.163,1.163,0,0,0-1.046-.563,1.047,1.047,0,0,0-.925.47v-.39h-.688V-.444h.694V-2.2a.74.74,0,0,1,.188-.6.74.74,0,0,1,.584-.239c.457,0,.689.3.689.834V-.441h.694V-2.2a.747.747,0,0,1,.19-.6.747.747,0,0,1,.581-.242c.47,0,.694.3.694.834V-.441Z" transform="translate(112.606 4.566)" fill="#fff"/>
        </g>
        <g id="Group_3277" data-name="Group 3277" transform="translate(32.713 29.366)">
          <path id="Path_5045" data-name="Path 5045" d="M-1.122-.929v.077h.072a.071.071,0,0,0,.039-.009A.033.033,0,0,0-1-.891.032.032,0,0,0-1.012-.92a.065.065,0,0,0-.039-.009Zm.072-.055a.133.133,0,0,1,.086.026.083.083,0,0,1,.029.067.077.077,0,0,1-.024.06A.12.12,0,0,1-1.026-.8l.1.11h-.077L-1.094-.8h-.029v.11h-.062v-.29Zm-.019.392A.231.231,0,0,0-.974-.611.248.248,0,0,0-.9-.664.244.244,0,0,0-.845-.741a.25.25,0,0,0,.019-.1A.25.25,0,0,0-.845-.932.252.252,0,0,0-.9-1.009a.231.231,0,0,0-.077-.052.231.231,0,0,0-.094-.02.24.24,0,0,0-.1.019.231.231,0,0,0-.077.052.238.238,0,0,0-.052.077.236.236,0,0,0-.019.1.236.236,0,0,0,.019.1.231.231,0,0,0,.052.077.247.247,0,0,0,.077.052.24.24,0,0,0,.1.019m0-.559a.308.308,0,0,1,.124.025.312.312,0,0,1,.1.067.308.308,0,0,1,.068.1.3.3,0,0,1,.025.122.3.3,0,0,1-.025.122.313.313,0,0,1-.069.1.327.327,0,0,1-.1.068.308.308,0,0,1-.124.025A.319.319,0,0,1-1.2-.548a.318.318,0,0,1-.1-.068.313.313,0,0,1-.068-.1A.3.3,0,0,1-1.39-.837a.3.3,0,0,1,.024-.12.308.308,0,0,1,.068-.1.308.308,0,0,1,.1-.067.319.319,0,0,1,.126-.025" transform="translate(1.39 1.152)" fill="#231f20"/>
        </g>
      </g>
    </g>
    <g id="master-card" transform="translate(2832.98 -22624.002)">
      <path id="Path_4956" data-name="Path 4956" d="M46.419,51.641a.883.883,0,0,1-.2.321.736.736,0,0,1-.3.211.9.9,0,0,1-.391.077.931.931,0,0,1-.4-.077.915.915,0,0,1-.3-.219.993.993,0,0,1-.187-.318,1.244,1.244,0,0,1-.062-.391,1.322,1.322,0,0,1,.062-.391,1.08,1.08,0,0,1,.187-.321.915.915,0,0,1,.3-.219.93.93,0,0,1,.4-.077.9.9,0,0,1,.391.077.931.931,0,0,1,.3.211.954.954,0,0,1,.2.321,1.126,1.126,0,0,1,.11.376,1.064,1.064,0,0,1-.11.423Zm0-3.255v1.659A1.353,1.353,0,0,0,46,49.709a1.291,1.291,0,0,0-.579-.125,1.479,1.479,0,0,0-.617.125,1.4,1.4,0,0,0-.5.344,1.565,1.565,0,0,0-.336.524,1.94,1.94,0,0,0,0,1.33,1.51,1.51,0,0,0,.336.524,1.4,1.4,0,0,0,.5.344,1.479,1.479,0,0,0,.617.125A1.2,1.2,0,0,0,46,52.775a1.252,1.252,0,0,0,.415-.336v.386H47.1V48.386ZM27.14,52.251a.869.869,0,0,0,.329-.062.959.959,0,0,0,.2-.094l.231.579-.289.133a1.446,1.446,0,0,1-.54.094,1.15,1.15,0,0,1-.837-.3,1.267,1.267,0,0,1-.3-.925V50.289h-.622v-.635h.626v-.939h.694v.939h1.111v.626h-1.11v1.37a.681.681,0,0,0,.039.266.532.532,0,0,0,.1.188.446.446,0,0,0,.164.1.517.517,0,0,0,.2.047Zm-10.39-2.6a1.222,1.222,0,0,1,.391.258,1.174,1.174,0,0,1,.258.4,1.465,1.465,0,0,1,.086.5V52.8H16.8V51.062a.892.892,0,0,0-.188-.61.665.665,0,0,0-.524-.211.783.783,0,0,0-.308.055.649.649,0,0,0-.251.154.822.822,0,0,0-.172.266.978.978,0,0,0-.062.352v1.753h-.662V51.062a.892.892,0,0,0-.18-.626.665.665,0,0,0-.524-.211.783.783,0,0,0-.308.055.649.649,0,0,0-.251.154.822.822,0,0,0-.172.266.978.978,0,0,0-.062.352V52.8H12.47V49.654h.657v.386a.971.971,0,0,1,.2-.227,1.129,1.129,0,0,1,.258-.154,1.311,1.311,0,0,1,.251-.07,1.268,1.268,0,0,1,.243,0,1.311,1.311,0,0,1,.617.149,1.174,1.174,0,0,1,.438.415.985.985,0,0,1,.227-.274,1.418,1.418,0,0,1,.281-.18,1.487,1.487,0,0,1,.308-.086h.3a1.323,1.323,0,0,1,.5.047ZM20.452,52a.993.993,0,0,0,.188-.321,1.064,1.064,0,0,0,.07-.463,1.125,1.125,0,0,0-.07-.4,1.08,1.08,0,0,0-.188-.321,1.065,1.065,0,0,0-.308-.211.884.884,0,0,0-.386-.077.93.93,0,0,0-.4.077.947.947,0,0,0-.308.219.925.925,0,0,0-.18.321,1.118,1.118,0,0,0-.07.391,1.056,1.056,0,0,0,.07.391.848.848,0,0,0,.18.321.946.946,0,0,0,.308.219.932.932,0,0,0,.4.077.884.884,0,0,0,.386-.077A.821.821,0,0,0,20.452,52Zm-.187-2.253a1.415,1.415,0,0,1,.407.336v-.43h.69v3.129h-.649V52.4a1.3,1.3,0,0,1-.407.336,1.252,1.252,0,0,1-.587.125,1.5,1.5,0,0,1-.617-.125,1.47,1.47,0,0,1-.5-.344,1.636,1.636,0,0,1-.336-.524,1.939,1.939,0,0,1,0-1.33,1.721,1.721,0,0,1,.336-.524,1.473,1.473,0,0,1,.5-.344,1.5,1.5,0,0,1,.617-.125,1.353,1.353,0,0,1,.548.164Zm4.256,1.565A1.689,1.689,0,0,0,23.737,51l-.329-.047h-.2l-.149-.164a.328.328,0,0,1-.11-.094.211.211,0,0,1,0-.141.313.313,0,0,1,.154-.274.848.848,0,0,1,.438-.1,1.211,1.211,0,0,1,.289,0l.274.062a1.556,1.556,0,0,1,.227.086l.18.094.3-.54a2.052,2.052,0,0,0-.657-.231,2.5,2.5,0,0,0-.694-.086,1.977,1.977,0,0,0-.548.07,1.228,1.228,0,0,0-.407.2.931.931,0,0,0-.352.783.783.783,0,0,0,.274.617,1.5,1.5,0,0,0,.783.308h.329a1.024,1.024,0,0,1,.415.133.25.25,0,0,1,.133.219.321.321,0,0,1-.18.281,1.127,1.127,0,0,1-.54.1,2.3,2.3,0,0,1-.344,0,1.486,1.486,0,0,1-.281-.07l-.227-.1-.172-.1-.313.517a1.33,1.33,0,0,0,.352.2,2.552,2.552,0,0,0,.368.125,2.01,2.01,0,0,0,.344.062h.279a2.412,2.412,0,0,0,.61-.077,1.282,1.282,0,0,0,.453-.211.994.994,0,0,0,.274-.329.838.838,0,0,0,.1-.415.783.783,0,0,0-.289-.657Zm4.608-.579a.979.979,0,0,0-.094.313h1.635a.955.955,0,0,0-.266-.571.712.712,0,0,0-.532-.211.848.848,0,0,0-.329.062.648.648,0,0,0-.227.109.694.694,0,0,0-.188.227Zm1.353-.955a1.292,1.292,0,0,1,.477.336,1.814,1.814,0,0,1,.308.524,2.018,2.018,0,0,1,.11.673.783.783,0,0,1,0,.133.712.712,0,0,1,0,.125H29.026a.973.973,0,0,0,.336.61.956.956,0,0,0,.281.141,1.1,1.1,0,0,0,.321.047,1.465,1.465,0,0,0,.477-.086A1.6,1.6,0,0,0,30.88,52l.336.485a1.565,1.565,0,0,1-.61.344,2.206,2.206,0,0,1-.681.1,1.745,1.745,0,0,1-.61-.149,1.441,1.441,0,0,1-.517-.336,1.5,1.5,0,0,1-.329-.524,1.886,1.886,0,0,1-.117-.681,2.058,2.058,0,0,1,.11-.673,1.564,1.564,0,0,1,.329-.524,1.291,1.291,0,0,1,.493-.336,1.565,1.565,0,0,1,.634-.125,1.388,1.388,0,0,1,.564.125Zm9.584,1.934a.884.884,0,0,1-.2.321.736.736,0,0,1-.3.211.9.9,0,0,1-.391.077.932.932,0,0,1-.4-.077.915.915,0,0,1-.3-.219.993.993,0,0,1-.188-.321,1.245,1.245,0,0,1-.062-.391,1.322,1.322,0,0,1,.062-.391,1.08,1.08,0,0,1,.188-.321.916.916,0,0,1,.3-.219.931.931,0,0,1,.4-.077.9.9,0,0,1,.391.077.932.932,0,0,1,.3.211.954.954,0,0,1,.2.321,1.125,1.125,0,0,1,.07.4,1.062,1.062,0,0,1-.07.329Zm0-1.565a1.322,1.322,0,0,0-.407-.336,1.292,1.292,0,0,0-.579-.125,1.457,1.457,0,0,0-.617.125,1.4,1.4,0,0,0-.5.344,1.565,1.565,0,0,0-.336.524,1.831,1.831,0,0,0,0,1.33,1.51,1.51,0,0,0,.336.524,1.4,1.4,0,0,0,.5.344A1.457,1.457,0,0,0,39.08,53a1.2,1.2,0,0,0,.579-.125,1.221,1.221,0,0,0,.407-.336v.386h.689V49.654h-.689Zm-6.416-.463a1.252,1.252,0,0,0-.524.11,1.1,1.1,0,0,0-.391.391v-.532h-.626v3.129h.634v-1.7a1.055,1.055,0,0,1,.055-.36.885.885,0,0,1,.154-.266.634.634,0,0,1,.231-.164.783.783,0,0,1,.308-.055,1.066,1.066,0,0,1,.266,0H33.9l.2-.657-.172-.039a1.447,1.447,0,0,0-.258.039Zm9.037.11a1.252,1.252,0,0,1,.524-.11,1.525,1.525,0,0,1,.281,0l.172.039-.2.657H43.32a1.112,1.112,0,0,0-.266,0,.783.783,0,0,0-.308.055.635.635,0,0,0-.231.164.783.783,0,0,0-.154.266,1.055,1.055,0,0,0-.055.36v1.737h-.634v-3.31H42.3v.415a1.1,1.1,0,0,1,.415-.376Zm-7.041.617a1.026,1.026,0,0,0-.313.2.9.9,0,0,0-.2.321.993.993,0,0,0-.077.407,1.033,1.033,0,0,0,.077.415.939.939,0,0,0,.2.313.925.925,0,0,0,.313.211,1.12,1.12,0,0,0,.391.07,1.245,1.245,0,0,0,.43-.07.97.97,0,0,0,.336-.2l.329.555a1.651,1.651,0,0,1-.415.243,1.894,1.894,0,0,1-1.353,0,1.659,1.659,0,0,1-.532-.352,1.565,1.565,0,0,1-.36-.524,1.643,1.643,0,0,1-.125-.657,1.666,1.666,0,0,1,.125-.657,1.565,1.565,0,0,1,.36-.524,1.66,1.66,0,0,1,.532-.352,1.894,1.894,0,0,1,1.353,0,1.673,1.673,0,0,1,.415.251l-.329.548a.955.955,0,0,0-.336-.2,1.08,1.08,0,0,0-.43-.077.969.969,0,0,0-.407-.023Z" transform="translate(-10.52 -23.049)" fill="#fff" fill-rule="evenodd"/>
      <path id="Path_4957" data-name="Path 4957" d="M58.494,53.707v.055h-.023Zm.062-.062a.125.125,0,0,1,.086,0,.077.077,0,0,1,0,.07.07.07,0,0,1,0,.055h-.062l.094.1h-.1l-.077-.1v.1h-.077V53.59Zm0,.368a.154.154,0,0,0,.086,0,.258.258,0,0,0,.077-.047l.047-.077a.278.278,0,0,0,0-.086.386.386,0,0,0,0-.094l-.047-.07-.077-.055h-.18l-.077.055-.047.07a.391.391,0,0,0,0,.094.283.283,0,0,0,0,.086l.047.077a.261.261,0,0,0,.077.047.18.18,0,0,0,.077,0Zm0-.548a.35.35,0,0,1,.125,0,.326.326,0,0,1,.11.07.319.319,0,0,1,.062.1.225.225,0,0,1,0,.125.25.25,0,0,1-.023.125.447.447,0,0,1-.062.1l-.11.07a.355.355,0,0,1-.125,0,.369.369,0,0,1-.133,0l-.11-.07-.062-.1a.355.355,0,0,1,0-.125.321.321,0,0,1,0-.125.573.573,0,0,1,.07-.1.327.327,0,0,1,.11-.07.366.366,0,0,1,.133,0Z" transform="translate(-20.475 -24.153)" fill-rule="evenodd"/>
      <path id="Path_4958" data-name="Path 4958" d="M24.736,27.884a11.852,11.852,0,0,1,4.507-9.311,11.884,11.884,0,1,0,0,18.627,11.852,11.852,0,0,1-4.507-9.318Z" transform="translate(-9.977 -16.003)" fill="#e20c16" fill-rule="evenodd"/>
      <path id="Path_4959" data-name="Path 4959" d="M28.84,28.6a11.851,11.851,0,0,0,4.507,9.32,11.867,11.867,0,0,0,0-18.627A11.851,11.851,0,0,0,28.84,28.6Z" transform="translate(-14.082 -16.719)" fill="#ea6008" fill-rule="evenodd"/>
      <path id="Path_4960" data-name="Path 4960" d="M58.884,39.282v-.313l-.1.266h-.11l-.1-.266v.308h-.1v-.447h.148l.11.282.11-.282h.149v.448Zm-.783,0v-.313H58v-.094h.391v.094H58.25v.353Z" transform="translate(-20.426 -20.97)" fill="#f59e00" fill-rule="evenodd"/>
      <path id="Path_4961" data-name="Path 4961" d="M41.95,16.01a11.839,11.839,0,0,0-7.37,2.566,11.867,11.867,0,0,1,0,18.627A11.876,11.876,0,1,0,41.95,16.01Z" transform="translate(-15.331 -16.004)" fill="#f59e00" fill-rule="evenodd"/>
    </g>
    <g id="g4158" transform="translate(2886.962 -22618.6)">
      <path id="polygon9" d="M438.14,128.642h-4.633l2.9-17.919h4.632Z" transform="translate(-413.357 -110.401)" fill="#fff"/>
      <path id="path11" d="M579.076,105.81a11.414,11.414,0,0,0-4.155-.763c-4.575,0-7.8,2.44-7.817,5.927-.038,2.573,2.307,4,4.06,4.858,1.792.877,2.4,1.449,2.4,2.23-.018,1.2-1.447,1.753-2.782,1.753a9.221,9.221,0,0,1-4.347-.953l-.61-.286-.649,4.022a14.1,14.1,0,0,0,5.167.953c4.858,0,8.025-2.4,8.063-6.118.019-2.039-1.22-3.6-3.888-4.879-1.619-.82-2.613-1.372-2.613-2.212.019-.762.841-1.542,2.668-1.542a7.87,7.87,0,0,1,3.449.686l.42.19.63-3.87Z" transform="translate(-537.499 -105.047)" fill="#fff"/>
      <path id="path13" d="M797.689,122.294c.381-1.029,1.851-5.013,1.851-5.013-.019.038.381-1.048.61-1.715l.324,1.542s.878,4.291,1.067,5.184Zm5.72-11.567h-3.585a2.286,2.286,0,0,0-2.422,1.487l-6.88,16.426h4.858l.972-2.687h5.95c.133.629.553,2.687.553,2.687h4.291l-3.737-17.919h0Z" transform="translate(-749.957 -110.399)" fill="#fff"/>
      <path id="path15" d="M177.274,110.727l-4.537,12.217-.5-2.478a13.713,13.713,0,0,0-6.4-7.51L170,128.623h4.9l7.281-17.9h-4.9Z" transform="translate(-160.994 -110.401)" fill="#fff"/>
      <path id="path17" d="M88.7,110.724H81.241l-.077.362c5.814,1.487,9.664,5.07,11.247,9.378l-1.619-8.234a1.917,1.917,0,0,0-2.1-1.506Z" transform="translate(-81.164 -110.398)" fill="#faa61a"/>
    </g>
  </g>
</svg>
