<svg xmlns="http://www.w3.org/2000/svg" width="31.343" height="30.777" viewBox="0 0 31.343 30.777">
  <g id="pizza" transform="translate(-28.888 -31.076)">
    <circle id="Эллипс_684" data-name="Эллипс 684" cx="11.646" cy="11.646" r="11.646" transform="translate(36.94 31.076)" fill="#edebdc"/>
    <path id="Контур_11156" data-name="Контур 11156" d="M37.891,72.421a15.86,15.86,0,0,1,16.354-15.89,8.427,8.427,0,0,1,1.039-1.789,2.131,2.131,0,0,0-1.664-3.306c-5.538-.248-10.339,1.8-14.669,6.134A20.871,20.871,0,0,0,32.9,70.531a2.712,2.712,0,0,0,4.3,2.4Z" transform="translate(-3.482 -17.708)" fill="#bf7e68"/>
    <path id="Контур_11157" data-name="Контур 11157" d="M32.119,70.472A3.226,3.226,0,0,1,28.9,67a21.5,21.5,0,0,1,6.2-13.281c4.481-4.482,9.408-6.542,15.057-6.285a2.648,2.648,0,0,1,2.072,4.11,14.163,14.163,0,0,0-.955,1.55.515.515,0,0,1-.076.225.5.5,0,0,1-.455.244A15.342,15.342,0,0,0,34.926,68.933a.518.518,0,0,1-.214.42l-.7.506A3.225,3.225,0,0,1,32.119,70.472ZM49.25,48.447c-4.985,0-9.381,1.969-13.414,6a20.459,20.459,0,0,0-5.9,12.64,2.164,2.164,0,0,0,.961,1.974,2.2,2.2,0,0,0,2.515-.042l.486-.353A16.376,16.376,0,0,1,50.406,52.52c.164-.318.461-.792.965-1.551a1.613,1.613,0,0,0-1.256-2.5q-.435-.019-.865-.02Zm1.974,4.36h0Zm0,0h0Zm0,0h0Zm0,0h0Zm0,0h0Zm0,0h0Z" transform="translate(0 -14.221)" fill="#4c241d"/>
    <path id="Контур_11158" data-name="Контур 11158" d="M76.2,95.529a15.837,15.837,0,0,0-4.652,11.259l.177-.145c13.512,7.806,23.4,6.708,23.4,6.708.549-8.236-6.142-20.427-7.218-22.453A15.825,15.825,0,0,0,76.2,95.529Z" transform="translate(-37.143 -52.075)" fill="#ffce56"/>
    <path id="Контур_11159" data-name="Контур 11159" d="M90.2,110.443c-3.25,0-11.446-.7-21.914-6.668a.517.517,0,0,1-.73-.471A16.377,16.377,0,0,1,84.439,86.895a.518.518,0,0,1,.442.274l.13.244c5.029,9.412,7.5,17.187,7.147,22.486a.517.517,0,0,1-.459.48A14.575,14.575,0,0,1,90.2,110.443Zm-21.6-7.681c11.571,6.659,20.513,6.709,22.553,6.618.122-3.661-1.065-10.271-7.039-21.456A15.341,15.341,0,0,0,68.6,102.761Z" transform="translate(-33.661 -48.589)" fill="#4c241d"/>
    <circle id="Эллипс_685" data-name="Эллипс 685" cx="2.718" cy="2.718" r="2.718" transform="translate(49.192 53.099)" fill="#f53e28"/>
    <path id="Контур_11160" data-name="Контур 11160" d="M185.046,203.741a3.233,3.233,0,1,1,2.288-.946,3.225,3.225,0,0,1-2.288.946Zm-1.556-1.678a2.2,2.2,0,1,0,0-3.112,2.2,2.2,0,0,0,0,3.112Z" transform="translate(-133.136 -144.69)" fill="#4c241d"/>
    <circle id="Эллипс_686" data-name="Эллипс 686" cx="2.345" cy="2.345" r="2.345" transform="translate(38.066 49.597)" fill="#f53e28"/>
    <path id="Контур_11161" data-name="Контур 11161" d="M98.689,175.939a2.861,2.861,0,1,1,2.024-.837A2.853,2.853,0,0,1,98.689,175.939ZM97.4,174.37a1.828,1.828,0,1,0,0-2.584A1.83,1.83,0,0,0,97.4,174.37Z" transform="translate(-58.278 -121.136)" fill="#4c241d"/>
    <circle id="Эллипс_687" data-name="Эллипс 687" cx="3.253" cy="3.253" r="3.253" transform="translate(43.779 41.096)" fill="#f53e28"/>
    <path id="Контур_11162" data-name="Контур 11162" d="M143.745,112.064a3.769,3.769,0,1,1,2.666-1.1A3.758,3.758,0,0,1,143.745,112.064Zm0-6.5a2.734,2.734,0,1,0,1.934.8,2.727,2.727,0,0,0-1.934-.8Z" transform="translate(-96.713 -63.946)" fill="#4c241d"/>
    <g id="Сгруппировать_4631" data-name="Сгруппировать 4631" transform="translate(38.751 46.345)">
      <path id="Контур_11163" data-name="Контур 11163" d="M209.18,180.627a.515.515,0,0,1-.164-.027l-1.553-.518a.518.518,0,0,1,.328-.982l1.553.518a.518.518,0,0,1-.164,1.009Z" transform="translate(-193.91 -175.191)" fill="#a9ba5a"/>
      <path id="Контур_11164" data-name="Контур 11164" d="M159.627,193.66a.518.518,0,0,1-.491-.682l.518-1.553a.518.518,0,1,1,.982.328l-.518,1.553A.518.518,0,0,1,159.627,193.66Z" transform="translate(-152.121 -185.636)" fill="#a9ba5a"/>
      <path id="Контур_11165" data-name="Контур 11165" d="M131.18,222.627a.514.514,0,0,1-.164-.027l-1.553-.518a.518.518,0,0,1,.328-.982l1.553.518a.518.518,0,0,1-.164,1.009Z" transform="translate(-126.003 -211.757)" fill="#a9ba5a"/>
      <path id="Контур_11166" data-name="Контур 11166" d="M223.627,244.625a.518.518,0,0,1-.164-1.009l1.553-.518a.518.518,0,0,1,.328.982l-1.553.518A.514.514,0,0,1,223.627,244.625Z" transform="translate(-207.84 -230.908)" fill="#a9ba5a"/>
      <path id="Контур_11167" data-name="Контур 11167" d="M107.18,150.627a.514.514,0,0,1-.164-.027l-1.553-.518a.518.518,0,0,1,.328-.982l1.553.518a.518.518,0,0,1-.164,1.009Z" transform="translate(-105.109 -149.074)" fill="#a9ba5a"/>
    </g>
    <path id="Контур_11168" data-name="Контур 11168" d="M167.85,141.692a2.516,2.516,0,0,0,4.255-2.686c-.3-.47-1.156-.321-2.032.1l-.827-1.729-1.637,1.033,1.2,1.49c-.758.61-1.261,1.321-.964,1.791Z" transform="translate(-120.771 -92.546)" fill="#e7d1c4"/>
    <path id="Контур_11169" data-name="Контур 11169" d="M166.5,139.9a3.034,3.034,0,0,1-2.57-1.414h0c-.372-.589-.121-1.35.687-2.128l-.893-1.1a.518.518,0,0,1,.126-.763l1.636-1.033a.523.523,0,0,1,.42-.06.517.517,0,0,1,.324.274l.613,1.281c1.05-.4,1.844-.295,2.217.295a3.032,3.032,0,0,1-2.56,4.652Zm-1.6-4.844.839,1.038a.518.518,0,0,1-.078.729c-.723.583-.9,1.031-.851,1.112h0a2,2,0,1,0,3.38-2.134c-.051-.081-.532-.112-1.37.29a.517.517,0,0,1-.691-.243l-.576-1.2Z" transform="translate(-117.289 -89.066)" fill="#4c241d"/>
    <path id="Контур_11170" data-name="Контур 11170" d="M137.811,228.335a2.51,2.51,0,0,0-4.946-.194c1.307.51,2.556.939,3.734,1.293C137.337,229.184,137.872,228.8,137.811,228.335Z" transform="translate(-90.522 -169.829)" fill="#e7d1c4"/>
    <path id="Контур_11171" data-name="Контур 11171" d="M133.118,226.469a.518.518,0,0,1-.149-.022c-1.229-.369-2.5-.809-3.773-1.306a.518.518,0,0,1-.318-.59,3.028,3.028,0,0,1,5.966.235c.053.4-.079,1.156-1.559,1.656A.516.516,0,0,1,133.118,226.469Zm-3.091-2.118c1.039.394,2.072.748,3.077,1.055.553-.212.72-.43.712-.486h0a1.991,1.991,0,0,0-3.789-.569Z" transform="translate(-87.041 -166.346)" fill="#4c241d"/>
    <path id="Контур_11172" data-name="Контур 11172" d="M175.627,102.18a.518.518,0,0,1-.462-.749l1.035-2.07a.518.518,0,1,1,.926.463l-1.035,2.07A.517.517,0,0,1,175.627,102.18Z" transform="translate(-127.301 -59.2)" fill="#a9ba5a"/>
  </g>
</svg>
