<svg xmlns="http://www.w3.org/2000/svg" width="63.999" height="64.016" viewBox="0 0 63.999 64.016">
  <g id="pizza-slice" transform="translate(-0.002 -0.002)">
    <path id="Контур_11145" data-name="Контур 11145" d="M61.94,17.56a7.052,7.052,0,0,0-9.961,0L38.446,31.093a1,1,0,0,0,0,1.414l1.43,1.43-1.829,1.829a15.113,15.113,0,1,0,5.683,5.692l1.833-1.833,1.43,1.429a1,1,0,0,0,1.414,0L61.94,27.521A7.05,7.05,0,0,0,61.94,17.56ZM41.772,40.587l-7.29,7.291a3.953,3.953,0,0,1-1.033,3.86,4.022,4.022,0,1,1-5.687-5.688,3.952,3.952,0,0,1,3.858-1.029l7.293-7.293,2.377-2.377,2.859,2.859Zm15.9-17.339a.414.414,0,1,0-.005,0Z" fill="#bad3ba"/>
    <circle id="Эллипс_687" data-name="Эллипс 687" cx="2" cy="2" r="2" transform="translate(28.597 46.896)" fill="#bad3ba"/>
    <g id="Сгруппировать_4646" data-name="Сгруппировать 4646">
      <path id="Контур_11146" data-name="Контур 11146" d="M48.4,4.009a3.991,3.991,0,0,0-4.227-4A47.61,47.61,0,0,0,.009,44.174,3.989,3.989,0,0,0,7.69,45.906L45.2,48.493a3,3,0,0,0,3.2-3.2L45.8,7.729a4.01,4.01,0,0,0,2.6-3.72ZM6,44.509a2.023,2.023,0,0,1-2,1.9,1.991,1.991,0,0,1-2-2.092A45.6,45.6,0,0,1,44.31,2,1.992,1.992,0,0,1,46.4,4.009a2.023,2.023,0,0,1-1.9,2,41.639,41.639,0,0,0-38.494,38.5Zm40.4.921a1,1,0,0,1-1.068,1.07L8.069,43.927A39.626,39.626,0,0,1,43.823,8.079Z"/>
      <path id="Контур_11147" data-name="Контур 11147" d="M38.1,34.193a4,4,0,1,0,4,4A4,4,0,0,0,38.1,34.193Zm0,6a2,2,0,1,1,2-2A2,2,0,0,1,38.1,40.193Z"/>
      <path id="Контур_11148" data-name="Контур 11148" d="M39.6,21.5A5.5,5.5,0,1,0,34.1,27a5.5,5.5,0,0,0,5.5-5.5Zm-9,0A3.5,3.5,0,1,1,34.1,25a3.5,3.5,0,0,1-3.5-3.5Z"/>
      <path id="Контур_11149" data-name="Контур 11149" d="M19.623,27.486a1,1,0,0,0-1.414,0,7,7,0,0,0,9.9,9.9,1,1,0,0,0,0-1.414Zm0,8.485a5,5,0,0,1-.636-6.294l6.929,6.93a5.008,5.008,0,0,1-6.293-.636Z"/>
    </g>
  </g>
</svg>
