<svg xmlns="http://www.w3.org/2000/svg" width="33.057" height="30.777" viewBox="0 0 33.057 30.777">
  <g id="sandwich" transform="translate(-34 -42)">
    <circle id="Эллипс_694" data-name="Эллипс 694" cx="13" cy="13" r="13" transform="translate(34 42)" fill="#edebdc"/>
    <path id="Контур_11244" data-name="Контур 11244" d="M62,238H90.5v2.28H62Z" transform="translate(-24.01 -168.072)" fill="#bf7e68"/>
    <path id="Контур_11245" data-name="Контур 11245" d="M87.067,237.42H58.57a.57.57,0,0,1-.57-.57v-2.28a.57.57,0,0,1,.57-.57h28.5a.57.57,0,0,1,.57.57v2.28A.57.57,0,0,1,87.067,237.42ZM59.14,236.28H86.5v-1.14H59.14Z" transform="translate(-20.58 -164.642)" fill="#4c241d"/>
    <path id="Контур_11246" data-name="Контур 11246" d="M62,222H90.5v2.28H62Z" transform="translate(-24.01 -154.352)" fill="#e66353"/>
    <path id="Контур_11247" data-name="Контур 11247" d="M87.067,221.42H58.57a.57.57,0,0,1-.57-.57v-2.28a.57.57,0,0,1,.57-.57h28.5a.57.57,0,0,1,.57.57v2.28A.57.57,0,0,1,87.067,221.42ZM59.14,220.28H86.5v-1.14H59.14Z" transform="translate(-20.58 -150.922)" fill="#4c241d"/>
    <path id="Контур_11248" data-name="Контур 11248" d="M62,210H90.5v1.71H62Z" transform="translate(-24.01 -144.062)" fill="#ffce56"/>
    <path id="Контур_11249" data-name="Контур 11249" d="M87.067,208.85H58.57a.57.57,0,0,1-.57-.57v-1.71a.57.57,0,0,1,.57-.57h28.5a.57.57,0,0,1,.57.57v1.71A.57.57,0,0,1,87.067,208.85ZM59.14,207.71H86.5v-.57H59.14Z" transform="translate(-20.58 -140.632)" fill="#4c241d"/>
    <path id="Контур_11250" data-name="Контур 11250" d="M62,194H90.5v2.28H62Z" transform="translate(-24.01 -130.342)" fill="#a9ba5a"/>
    <path id="Контур_11251" data-name="Контур 11251" d="M87.067,193.42H58.57a.57.57,0,0,1-.57-.57v-2.28a.57.57,0,0,1,.57-.57h28.5a.57.57,0,0,1,.57.57v2.28A.57.57,0,0,1,87.067,193.42ZM59.14,192.28H86.5v-1.14H59.14Z" transform="translate(-20.58 -126.912)" fill="#4c241d"/>
    <path id="Контур_11252" data-name="Контур 11252" d="M62,178H90.5v2.28H62Z" transform="translate(-24.01 -116.622)" fill="#bf7e68"/>
    <path id="Контур_11253" data-name="Контур 11253" d="M87.067,177.42H58.57a.57.57,0,0,1-.57-.57v-2.28a.57.57,0,0,1,.57-.57h28.5a.57.57,0,0,1,.57.57v2.28A.57.57,0,0,1,87.067,177.42ZM59.14,176.28H86.5v-1.14H59.14Z" transform="translate(-20.58 -113.192)" fill="#4c241d"/>
    <path id="Контур_11254" data-name="Контур 11254" d="M62,119.53l14.58-9.716L90.5,119.53Z" transform="translate(-24.01 -58.151)" fill="#bf7e68"/>
    <g id="Сгруппировать_4633" data-name="Сгруппировать 4633" transform="translate(37.42 51.092)">
      <path id="Контур_11255" data-name="Контур 11255" d="M87.067,116.668H58.57a.57.57,0,0,1-.316-1.044l14.58-9.716a.568.568,0,0,1,.642.007l13.918,9.716a.57.57,0,0,1-.326,1.037Zm-26.615-1.14h24.8l-12.113-8.456Z" transform="translate(-58 -105.812)" fill="#4c241d"/>
      <circle id="Эллипс_695" data-name="Эллипс 695" cx="0.5" cy="0.5" r="0.5" transform="translate(14.58 3.907)" fill="#4c241d"/>
      <circle id="Эллипс_696" data-name="Эллипс 696" cx="0.5" cy="0.5" r="0.5" transform="translate(17.58 4.907)" fill="#4c241d"/>
      <circle id="Эллипс_697" data-name="Эллипс 697" cx="0.5" cy="0.5" r="0.5" transform="translate(15.58 6.907)" fill="#4c241d"/>
    </g>
  </g>
</svg>
