<svg xmlns="http://www.w3.org/2000/svg" width="32.34" height="36" viewBox="0 0 32.34 36">
  <g id="smoothie" transform="translate(-44 -32.001)">
    <ellipse id="Эллипс_698" data-name="Эллипс 698" cx="14" cy="13.5" rx="14" ry="13.5" transform="translate(44 37.001)" fill="#edebdc"/>
    <path id="Контур_11256" data-name="Контур 11256" d="M143.791,112.879H128.2a.61.61,0,0,1-.606-.538l-.434-3.661a.61.61,0,0,1,.606-.682h16.455a.611.611,0,0,1,.606.682l-.434,3.661A.61.61,0,0,1,143.791,112.879Zm-15.045-1.22h14.5l.29-2.441H128.457Z" transform="translate(-70.474 -64.404)" fill="#4c241d"/>
    <path id="Контур_11257" data-name="Контур 11257" d="M148.926,125.829a1.522,1.522,0,0,0-2.789-.494,1.814,1.814,0,0,0-2.79-.137,1.821,1.821,0,0,0-3.424,0,1.819,1.819,0,0,0-2.617-.067,1.523,1.523,0,0,0-2.963.7h-.335l2.316,19.526h10.954l2.316-19.526Z" transform="translate(-76.279 -77.963)" fill="#9dc1e4"/>
    <g id="Сгруппировать_4634" data-name="Сгруппировать 4634" transform="translate(54.373 32.001)">
      <path id="Контур_11258" data-name="Контур 11258" d="M143.887,142.575H132.933a.61.61,0,0,1-.606-.538l-2.316-19.526a.608.608,0,0,1,.312-.607,2.131,2.131,0,0,1,3.82-1.059,2.469,2.469,0,0,1,2.208.061,2.423,2.423,0,0,1,3.783,0,2.472,2.472,0,0,1,2.582.164,2.113,2.113,0,0,1,1.323-.462,2.144,2.144,0,0,1,1.929,1.22h.235a.61.61,0,0,1,.606.682l-2.317,19.526A.609.609,0,0,1,143.887,142.575Zm-10.412-1.22h9.87l2.172-18.305a.611.611,0,0,1-.581-.489.917.917,0,0,0-.9-.732.907.907,0,0,0-.775.437.614.614,0,0,1-.489.288.592.592,0,0,1-.515-.24,1.236,1.236,0,0,0-1.858-.092.61.61,0,0,1-1.02-.2,1.211,1.211,0,0,0-2.279,0,.61.61,0,0,1-1.02.2,1.238,1.238,0,0,0-1.742-.046.61.61,0,0,1-1.016-.278.912.912,0,0,0-1.794.235.9.9,0,0,0,.018.183.608.608,0,0,1-.125.508.6.6,0,0,1-.133.122Z" transform="translate(-127.26 -106.575)" fill="#4c241d"/>
      <path id="Контур_11259" data-name="Контур 11259" d="M133.356,109.218H112.61a.61.61,0,1,1,0-1.22h20.746a.61.61,0,0,1,0,1.22Z" transform="translate(-112 -96.405)" fill="#4c241d"/>
      <path id="Контур_11260" data-name="Контур 11260" d="M142.524,61.433h-17.2a.61.61,0,0,1-.61-.61,9.212,9.212,0,0,1,18.423,0A.61.61,0,0,1,142.524,61.433Zm-16.57-1.22h15.936a7.991,7.991,0,0,0-15.936,0Z" transform="translate(-122.772 -48.62)" fill="#4c241d"/>
      <path id="Контур_11261" data-name="Контур 11261" d="M192.78,48.007a.61.61,0,0,1-.573-.82L197.623,32.4a.61.61,0,1,1,1.147.419l-5.416,14.786A.611.611,0,0,1,192.78,48.007Z" transform="translate(-179.94 -32.001)" fill="#4c241d"/>
    </g>
    <circle id="Эллипс_699" data-name="Эллипс 699" cx="0.93" cy="0.93" r="0.93" transform="translate(65.647 49.987)" fill="#fff"/>
    <path id="Контур_11262" data-name="Контур 11262" d="M183.446,148.984a1.54,1.54,0,1,1,1.54-1.54A1.541,1.541,0,0,1,183.446,148.984Zm0-1.859a.319.319,0,1,0,.319.319A.32.32,0,0,0,183.446,147.124Z" transform="translate(-116.869 -96.527)" fill="#4c241d"/>
    <circle id="Эллипс_700" data-name="Эллипс 700" cx="1.419" cy="1.419" r="1.419" transform="translate(60.276 49.498)" fill="#fff"/>
    <path id="Контур_11263" data-name="Контур 11263" d="M148.728,146.755a2.029,2.029,0,1,1,2.029-2.029A2.031,2.031,0,0,1,148.728,146.755Zm0-2.838a.809.809,0,1,0,.809.809A.81.81,0,0,0,148.728,143.917Z" transform="translate(-87.033 -93.81)" fill="#4c241d"/>
    <circle id="Эллипс_701" data-name="Эллипс 701" cx="1.782" cy="1.782" r="1.782" transform="translate(62.964 54.016)" fill="#fff"/>
    <path id="Контур_11264" data-name="Контур 11264" d="M166.712,177.1a2.392,2.392,0,1,1,2.392-2.392A2.395,2.395,0,0,1,166.712,177.1Zm0-3.563a1.172,1.172,0,1,0,1.172,1.172A1.173,1.173,0,0,0,166.712,173.538Z" transform="translate(-101.966 -118.911)" fill="#4c241d"/>
    <path id="Контур_11265" data-name="Контур 11265" d="M150.787,71.254a.61.61,0,0,1-.455-1.017,6.722,6.722,0,0,1,5-2.239.61.61,0,1,1,0,1.22,5.5,5.5,0,0,0-4.095,1.832A.609.609,0,0,1,150.787,71.254Z" transform="translate(-89.98 -30.506)" fill="#4c241d"/>
  </g>
</svg>
