<svg xmlns="http://www.w3.org/2000/svg" width="159.447" height="100" viewBox="0 0 159.447 100">
  <g id="Сгруппировать_4501" data-name="Сгруппировать 4501" transform="translate(-454 -827)">
    <g id="Сгруппировать_3591" data-name="Сгруппировать 3591" transform="translate(485.923 829.583)">
      <g id="Контур_5168" data-name="Контур 5168" transform="translate(0 0)">
        <path id="Контур_5172" data-name="Контур 5172" d="M115.905,3.266C85.716-2.274,59.824,9.22,51.683,20.452c-5.121,7.066-13.454,55.144-32.1,44.323C51.651,90.323,92.1-8.477,143.639,62.712,148.964,34.552,141.6,7.981,115.905,3.266Z" transform="translate(-19.586 -1.829)" fill="#ececec"/>
      </g>
    </g>
    <g id="Сгруппировать_3596" data-name="Сгруппировать 3596" transform="translate(454 827)">
      <path id="Контур_5173" data-name="Контур 5173" d="M86.123,33.11a2.154,2.154,0,0,0-2.145-2.15h0a2.15,2.15,0,0,0-2.148,2.15,7.52,7.52,0,0,1-15.04,0,2.148,2.148,0,1,0-4.3,0,11.815,11.815,0,0,0,23.631,0Z" transform="translate(39.743 19.361)" fill="#b4b4b4"/>
      <path id="Контур_5174" data-name="Контур 5174" d="M155.209,23.13A34.336,34.336,0,0,0,129.228,2.262C117.216-.111,106.774-.866,91.861,2.7c-14.4,3.446-25.194,9.9-29.634,17.744A102.548,102.548,0,0,0,56.4,35.458C52.1,48.144,45.6,67.317,37.642,65.487c-.1-.015-9.433-1.545-9.7-7.56-.079-1.758,2.651-4.118,5.06-6.2,3.417-2.955,7.291-6.3,9.249-11.112,2.32-5.695,1.322-11.932-3.045-19.067a2.15,2.15,0,0,0-2.95-.716,2.067,2.067,0,0,0-.934,1.2,10.317,10.317,0,0,1-3.238,4.484,24.764,24.764,0,0,1-4.271,2.627c-2.517,1.329-5.334,2.817-6.807,5.41a24.069,24.069,0,0,0-3.676-2.411c-1.034-.538-2.147-1.078-3.261-1.611-3.751-1.811-8.418-4.064-9.184-6.36a2.15,2.15,0,0,0-4.153.3C.635,25-1.556,37.505,2.879,46.833a17.536,17.536,0,0,0,7.733,7.614c3.761,2.291,6.73,4.1,7.278,11.486.333,4.6,1.024,14.187,7.442,21.82A31.025,31.025,0,0,0,38.5,96.676a64.514,64.514,0,0,0,22.929,3.363c5.986-.046,11.814.015,17.449.074l.619.007c3.889.043,7.64.082,11.2.082h.041q1.9.054,3.812.052a138.2,138.2,0,0,0,22.076-1.776,26.6,26.6,0,0,0,12.1-5.118,13.786,13.786,0,0,0,4.8-8.915C144,83.3,150.016,80.078,154.217,73.405c2.338-3.717,4.431-12.205,5.09-20.645C159.912,44.961,159.691,33.492,155.209,23.13ZM86.562,72.491Zm7.856,1.475A2.148,2.148,0,0,0,95.476,69.8a11.511,11.511,0,0,0-8.1,1.108,8.093,8.093,0,0,0-1.029.718,1.941,1.941,0,0,0-.361.282A11.869,11.869,0,0,0,82.316,78.2a2.147,2.147,0,0,0,1.534,2.614,2.172,2.172,0,0,0,2.627-1.56,8.622,8.622,0,0,1,1.175-2.763,33.854,33.854,0,0,0,12.024,6.465,59.936,59.936,0,0,0,15,2.53c1.44.074,2.835.1,4.169.1h.036a87.464,87.464,0,0,0,10.172-.595c-1.091,4.759-5.234,7.64-13.246,9.266-9.164,1.857-21.926,1.717-36.724,1.56-4.272-.046-8.651-.093-13.153-.093q-2.252,0-4.543.018c-15.66.115-26.677-3.5-32.788-10.763-4.823-5.741-5.944-12.7-6.437-19.363-.711-9.6-5.488-12.509-9.4-14.885a13.4,13.4,0,0,1-6.031-5.78c-2.284-4.8-2.465-10.944-2.266-14.94a37.549,37.549,0,0,0,7.75,4.4c1.1.529,2.135,1.029,3.1,1.532a21.607,21.607,0,0,1,5.226,4,2.147,2.147,0,0,0,3.731-1.449c0-2.168,1.434-3.332,4.459-4.982.736-.415,1.116-.6,1.427-.755l.051-.025a18.552,18.552,0,0,1-.916,6.947A2.15,2.15,0,0,0,32.191,42.4a2.187,2.187,0,0,0,1.154-1.273,23.321,23.321,0,0,0,.8-11.665c.374-.333,1.009-.846,1.545-1.278.656-.529,1.159-.939,1.537-1.265,2.143,4.554,2.479,8.513,1.031,12.078-1.567,3.846-5.006,6.822-8.084,9.483-3.7,3.2-6.9,5.965-6.527,9.836a11.368,11.368,0,0,0,5.944,8.818,23.767,23.767,0,0,0,14.024,4.69c10.095,0,20.057-6.175,31.084-13.625.446-.288.878-.583,1.286-.872L77.493,56.3c7.1-4.815,14.439-9.795,21.931-13.1l.174-.077a43.94,43.94,0,0,1,13.792-3.758c13.939-1.209,27,6.732,39.876,24.283a28.923,28.923,0,0,1-2.663,7.41l-.033.049c-3.651,5.8-9.048,8.387-19.25,9.225l-.169.023a82.012,82.012,0,0,1-16.306.829c-7.056-.364-16.691-1.932-23.536-7.238A7.785,7.785,0,0,1,94.418,73.966ZM51.886,58.593c3.381-6.393,6.14-14.547,8.592-21.8A102.748,102.748,0,0,1,65.969,22.55a26.584,26.584,0,0,1,9.711-9.09A59.9,59.9,0,0,1,87.81,8.211c-7.173,6.781-10.788,16.964-14.3,26.853C68.875,48.114,64.081,61.61,51.142,66.395c-.061.026-.12.056-.177.085A23.681,23.681,0,0,1,45.054,67.6a26.494,26.494,0,0,0,6.434-8.254L51.9,58.6Zm95.433-14.764a6.8,6.8,0,0,1-5.963.89,46.091,46.091,0,0,0-10.54-6.514,25.763,25.763,0,0,0,10.075-6.832,25.11,25.11,0,0,0,6.527-13.292,33.232,33.232,0,0,1,3.843,6.742,43.2,43.2,0,0,1,1.857,5.2C152.721,36.445,150.56,41.6,147.318,43.829Zm-9.487-15.268a21.287,21.287,0,0,1-15.267,7.065,36.286,36.286,0,0,0-10.767-.3,56.864,56.864,0,0,0,11.04-12.789C127.6,15.652,130.5,11.5,141.021,11.744a28.365,28.365,0,0,1,2.476,1.991A20.644,20.644,0,0,1,137.832,28.561Zm-18.408-8.384c-4.069,5.885-9.133,13.208-21.509,19.164-2.9,1.3-5.749,2.763-8.515,4.353a104.062,104.062,0,0,0,9.4-16.515c5.985-12.1,10.726-21.679,23.86-21.679.133,0,.269,0,.4,0,1.713.252,3.361.547,5,.89l1.445.321a33.61,33.61,0,0,1,4.757,1.434C126.626,9.751,123.258,14.627,119.423,20.177ZM95.068,25.324C90.249,35.067,84.784,46.109,73.635,53.9c-1.924,1.306-3.822,2.588-5.7,3.813,4.18-6.3,6.875-13.885,9.5-21.261,5.192-14.621,10.1-28.432,25.45-31.382a72.832,72.832,0,0,1,7.279-.483C103.226,8.853,99.265,16.852,95.068,25.324Zm54.641,21.892a17.805,17.805,0,0,0,5.277-6.652,70.867,70.867,0,0,1,.09,11.112l-.061.755c-.149,1.912-.374,3.836-.67,5.741a91.834,91.834,0,0,0-8.3-9.288A10.881,10.881,0,0,0,149.709,47.216Z" transform="translate(-0.106 -0.253)" fill="#b4b4b4"/>
    </g>
  </g>
</svg>
