<svg xmlns="http://www.w3.org/2000/svg" width="174.721" height="109.58" viewBox="0 0 174.721 109.58">
  <g id="Сгруппировать_4447" data-name="Сгруппировать 4447" transform="translate(-273 -461)">
    <g id="Сгруппировать_3590" data-name="Сгруппировать 3590" transform="translate(275.373 464.868)">
      <g id="Контур_5167" data-name="Контур 5167">
        <path id="Контур_5171" data-name="Контур 5171" d="M95.724,79.561s-.266,9.607,29.989,10.383c22.549.578,33.7-1.09,40.225-11.457,6.378-10.132,15.341-66.854-26.349-74.505C106.508-2.09,78.135,10.507,69.214,22.814,61.187,33.888,54.848,76.835,39.726,73.366c0,0-11.649-1.487-12.515-10.415S54.758,48.4,39.891,24.128a13.406,13.406,0,0,1-4.31,6.05c-4.613,3.857-12.369,4.956-12.369,11.3A25.941,25.941,0,0,0,16.852,36.6C11.183,33.655,3.5,30.824,2.066,26.522c0,0-2.415,13.443,2.155,23.047s15.53,6.194,16.686,21.806c.955,12.9,4.195,35.514,45.348,35.2,41.2-.329,76.447,4.089,76.816-16.88" transform="translate(-1.428 -2.407)" fill="#fff"/>
      </g>
    </g>
    <g id="Сгруппировать_3591" data-name="Сгруппировать 3591" transform="translate(307.98 463.83)">
      <g id="Контур_5168" data-name="Контур 5168">
        <path id="Контур_5172" data-name="Контур 5172" d="M125.133,3.4C92.051-2.668,63.679,9.928,54.757,22.236c-5.612,7.743-14.743,60.427-35.171,48.569,35.137,28,79.465-80.27,135.938-2.261C161.358,37.686,153.293,8.57,125.133,3.4Z" transform="translate(-19.586 -1.829)" fill="#ff7d00"/>
      </g>
    </g>
    <g id="Сгруппировать_3617" data-name="Сгруппировать 3617" transform="translate(273 461)">
      <path id="Контур_5174" data-name="Контур 5174" d="M170.068,25.322A37.625,37.625,0,0,0,141.6,2.455c-13.163-2.6-24.605-3.428-40.947.485C84.87,6.716,73.044,13.784,68.179,22.384a112.371,112.371,0,0,0-6.387,16.447c-4.712,13.9-11.832,34.911-20.554,32.905-.1-.016-10.336-1.693-10.633-8.284-.086-1.927,2.906-4.513,5.545-6.8,3.744-3.238,7.989-6.906,10.135-12.177,2.543-6.24,1.449-13.075-3.336-20.893a2.356,2.356,0,0,0-3.232-.785,2.265,2.265,0,0,0-1.024,1.32,11.305,11.305,0,0,1-3.548,4.913,27.136,27.136,0,0,1-4.68,2.879C27.707,33.368,24.62,35,23.005,37.84A26.376,26.376,0,0,0,18.977,35.2c-1.133-.589-2.352-1.182-3.574-1.765-4.11-1.984-9.225-4.453-10.063-6.969a2.355,2.355,0,0,0-4.55.327c-.1.578-2.505,14.283,2.354,24.5a19.216,19.216,0,0,0,8.474,8.343c4.121,2.51,7.375,4.491,7.975,12.586.365,5.046,1.122,15.546,8.154,23.91a34,34,0,0,0,14.432,9.778A70.694,70.694,0,0,0,67.306,109.6c6.56-.05,12.946.016,19.121.081l.679.007c4.261.047,8.372.09,12.277.09h.045q2.085.059,4.177.057a151.444,151.444,0,0,0,24.19-1.947,29.147,29.147,0,0,0,13.263-5.608,15.106,15.106,0,0,0,5.262-9.769c11.462-1.25,18.056-4.784,22.66-12.1,2.563-4.073,4.856-13.375,5.578-22.623C175.221,49.244,174.979,36.676,170.068,25.322ZM94.844,79.411Zm8.609,1.616a2.354,2.354,0,0,0,1.16-4.563,12.613,12.613,0,0,0-8.871,1.214,8.869,8.869,0,0,0-1.128.787,2.126,2.126,0,0,0-.4.309,13.006,13.006,0,0,0-4.028,6.894,2.353,2.353,0,0,0,1.681,2.864,2.38,2.38,0,0,0,2.879-1.71,9.448,9.448,0,0,1,1.288-3.028,37.1,37.1,0,0,0,13.175,7.084,65.678,65.678,0,0,0,16.436,2.773c1.578.081,3.107.113,4.568.113h.04a95.844,95.844,0,0,0,11.146-.652c-1.2,5.215-5.736,8.372-14.515,10.153-10.042,2.035-24.027,1.882-40.243,1.71-4.681-.05-9.48-.1-14.413-.1q-2.467,0-4.978.02c-17.16.126-29.233-3.832-35.929-11.794-5.285-6.29-6.513-13.915-7.054-21.218-.779-10.519-6.014-13.707-10.3-16.311a14.679,14.679,0,0,1-6.608-6.334c-2.5-5.263-2.7-11.992-2.484-16.372a41.146,41.146,0,0,0,8.492,4.818c1.2.58,2.34,1.128,3.4,1.679A23.677,23.677,0,0,1,22.5,43.744a2.353,2.353,0,0,0,4.089-1.587c0-2.376,1.571-3.651,4.886-5.459.806-.454,1.223-.659,1.564-.828l.056-.027a20.329,20.329,0,0,1-1,7.612,2.356,2.356,0,0,0,3.169,2.983,2.4,2.4,0,0,0,1.264-1.4,25.555,25.555,0,0,0,.878-12.782c.409-.365,1.106-.927,1.693-1.4.718-.58,1.27-1.029,1.684-1.386,2.349,4.99,2.717,9.329,1.13,13.235C40.2,46.923,36.428,50.184,33.056,53.1,29,56.609,25.494,59.636,25.9,63.878a12.457,12.457,0,0,0,6.513,9.663A26.044,26.044,0,0,0,47.785,78.68c11.062,0,21.978-6.766,34.062-14.93.488-.316.963-.639,1.41-.955l1.65-1.121c7.777-5.276,15.822-10.733,24.032-14.352l.19-.084a48.15,48.15,0,0,1,15.113-4.118c15.275-1.325,29.583,7.377,43.7,26.609a31.693,31.693,0,0,1-2.918,8.12l-.036.054c-4,6.357-9.914,9.191-21.095,10.108l-.185.025a89.868,89.868,0,0,1-17.868.909c-7.732-.4-18.29-2.117-25.79-7.932A8.531,8.531,0,0,1,103.453,81.027ZM56.846,64.181c3.7-7.005,6.729-15.941,9.415-23.887a112.59,112.59,0,0,1,6.018-15.609A29.131,29.131,0,0,1,82.92,14.725,65.638,65.638,0,0,1,96.212,8.973C88.352,16.4,84.391,27.563,80.543,38.4,75.463,52.7,70.21,67.487,56.031,72.731c-.066.029-.131.061-.194.093a25.95,25.95,0,0,1-6.477,1.228c2.446-1.909,4.771-4.9,7.05-9.045l.451-.819ZM161.421,48a7.454,7.454,0,0,1-6.535.975,50.506,50.506,0,0,0-11.55-7.138,28.231,28.231,0,0,0,11.04-7.486,27.515,27.515,0,0,0,7.152-14.565,36.416,36.416,0,0,1,4.211,7.388,47.333,47.333,0,0,1,2.035,5.7C167.342,39.912,164.973,45.56,161.421,48Zm-10.4-16.731A23.326,23.326,0,0,1,134.3,39.014a39.762,39.762,0,0,0-11.8-.334,62.312,62.312,0,0,0,12.1-14.014c5.213-7.539,8.4-12.085,19.924-11.821a31.078,31.078,0,0,1,2.713,2.182A22.621,22.621,0,0,1,151.026,31.273Zm-20.172-9.187c-4.459,6.449-10.008,14.474-23.569,21-3.175,1.429-6.3,3.028-9.331,4.769a114.031,114.031,0,0,0,10.3-18.1C114.811,16.5,120.006,6,134.4,6c.145,0,.295,0,.442,0,1.877.277,3.683.6,5.481.975l1.584.352A36.83,36.83,0,0,1,147.118,8.9C138.746,10.661,135.056,16,130.854,22.086Zm-26.688,5.64C98.884,38.4,92.9,50.5,80.679,59.037c-2.108,1.431-4.188,2.835-6.246,4.179,4.581-6.9,7.533-15.215,10.406-23.3C90.529,23.9,95.905,8.761,112.728,5.529A79.809,79.809,0,0,1,120.7,5C113.1,9.677,108.765,18.442,104.166,27.726Zm59.875,23.989a19.511,19.511,0,0,0,5.782-7.289,77.653,77.653,0,0,1,.1,12.177l-.066.828c-.163,2.1-.409,4.2-.734,6.29a100.634,100.634,0,0,0-9.1-10.178A11.924,11.924,0,0,0,164.041,51.715Z" transform="translate(-0.106 -0.253)" fill="#2b2c34"/>
      <circle id="Эллипс_271" data-name="Эллипс 271" cx="5" cy="5" r="5" transform="translate(132 64.039)" fill="#2b2c34"/>
    </g>
  </g>
</svg>
