<svg xmlns="http://www.w3.org/2000/svg" width="50" height="49.913" viewBox="0 0 50 49.913">
  <g id="logo_JQ" data-name="logo JQ" transform="translate(-0.102 -0.226)">
    <path id="Path_143" data-name="Path 143" d="M26.092.3C16.59.3,11.23,5.355,7.027,13.091c-1.827,3.472-4.02,7.8-4.02,12.06,0,4.142-.731,8.1,1.1,11.573.365.609.731,1.279,1.1,1.949A24.866,24.866,0,1,0,26.092.3Z" transform="translate(-1.079 -0.029)" fill="#fefefe"/>
    <path id="Path_144" data-name="Path 144" d="M40.18,45.162a26.951,26.951,0,0,0-4.081-3.9c-1.949-.914-10.416,1.645-15.167-7.979-4.264-8.527-.853-18.638,4.934-22.354,8.284-5.482,17.055-.548,19.978,6.213a20.8,20.8,0,0,1,.792,13.1c-1.766,6.152-9.258,9.624-3.045,11.695,2.254-1.827,5.056-7.309,5.908-11.147A25.074,25.074,0,0,0,5.217,9.956C.893,15.62-1.544,25.67,1.38,33.467a15.508,15.508,0,0,0,1.462,3.046c3.533,1.34,6.883-.061,7.736-3.716a10.26,10.26,0,0,0,.365-2.741V9.834a.575.575,0,0,1,.609-.609h3.594a.61.61,0,0,1,.609.609V30.056c0,6.761-3.35,10.172-9.746,11.025,2.315,4.02,9.746,7.857,15.228,8.771a25.688,25.688,0,0,0,10.781-.67C35.855,48.024,37.317,46.563,40.18,45.162Z" transform="translate(0)" fill="#1b2230"/>
    <path id="Path_145" data-name="Path 145" d="M52.282,50.507a42.869,42.869,0,0,0,3.35-3.289c-2.5-1.035-3.106-2.071-1.34-4.325,1.035-1.4,3.045-2.5,4.386-7.37a20.8,20.8,0,0,0-.792-13.1c-2.924-6.7-11.695-11.634-19.978-6.213-5.786,3.776-9.2,13.887-4.934,22.354,4.812,9.685,13.278,7.126,15.167,8.04C49.6,48.679,51.064,50.141,52.282,50.507Z" transform="translate(-12.103 -5.345)" fill="#f2d649"/>
    <path id="Path_146" data-name="Path 146" d="M48.385,44.864c5.349,0,9.685-5.454,9.685-12.182S53.733,20.5,48.385,20.5,38.7,25.954,38.7,32.682,43.036,44.864,48.385,44.864Z" transform="translate(-15.088 -7.925)" fill="#1b2230"/>
  </g>
</svg>
