<svg xmlns="http://www.w3.org/2000/svg" width="36.997" height="35.409" viewBox="0 0 36.997 35.409">
  <g id="meal" transform="translate(-43.239 -26.001)">
    <ellipse id="Эллипс_688" data-name="Эллипс 688" cx="13.5" cy="12.5" rx="13.5" ry="12.5" transform="translate(47.239 27.001)" fill="#edebdc"/>
    <path id="Контур_11173" data-name="Контур 11173" d="M103.81,36.346a.571.571,0,0,1-.571-.571V29.488a.571.571,0,0,1,.27-.485l4.7-2.916a.571.571,0,1,1,.6.97l-4.426,2.749v5.969A.571.571,0,0,1,103.81,36.346Z" transform="translate(-51.433)" fill="#4c241d"/>
    <path id="Контур_11174" data-name="Контур 11174" d="M71.225,130.558H61.74l-1.828-23.225H73.054Z" transform="translate(-14.292 -69.72)" fill="#c1dbdc"/>
    <path id="Контур_11175" data-name="Контур 11175" d="M67.8,127.7H58.311a.571.571,0,0,1-.569-.527l-1.829-23.226a.571.571,0,0,1,.57-.616H69.625a.571.571,0,0,1,.57.616l-1.829,23.226A.571.571,0,0,1,67.8,127.7Zm-8.957-1.142h8.429l1.738-22.083H57.1Z" transform="translate(-10.863 -66.29)" fill="#4c241d"/>
    <path id="Контур_11176" data-name="Контур 11176" d="M47.239,94H64.373v2.856H47.239Z" transform="translate(-3.429 -58.289)" fill="#fff"/>
    <path id="Контур_11177" data-name="Контур 11177" d="M60.944,94H43.81a.571.571,0,0,1-.571-.571V90.57A.571.571,0,0,1,43.81,90H60.944a.571.571,0,0,1,.571.571v2.856A.571.571,0,0,1,60.944,94ZM44.381,92.855H60.373V91.141H44.381Z" transform="translate(0 -54.861)" fill="#4c241d"/>
    <path id="Контур_11178" data-name="Контур 11178" d="M75.86,172.852,76.409,166h-11.8l.548,6.853Z" transform="translate(-18.318 -120.009)" fill="#fff"/>
    <path id="Контур_11179" data-name="Контур 11179" d="M72.432,169.995h-10.7a.571.571,0,0,1-.569-.525l-.549-6.853a.571.571,0,0,1,.569-.617h11.8a.571.571,0,0,1,.569.617L73,169.469A.57.57,0,0,1,72.432,169.995Zm-10.177-1.142H71.9l.457-5.711H61.8Z" transform="translate(-14.889 -116.58)" fill="#4c241d"/>
    <path id="Контур_11199" data-name="Контур 11199" d="M36.525,66.684a11.528,11.528,0,0,1,11.888-11.55,6.125,6.125,0,0,1,.755-1.3,1.549,1.549,0,0,0-1.21-2.4A13.69,13.69,0,0,0,37.3,55.89a15.171,15.171,0,0,0-4.4,9.421,1.971,1.971,0,0,0,3.122,1.742Z" transform="translate(123.848 -5.885) rotate(82)" fill="#bf7e68"/>
    <path id="Контур_11200" data-name="Контур 11200" d="M31.237,64.174a2.345,2.345,0,0,1-2.34-2.525A15.624,15.624,0,0,1,33.406,52c3.258-3.258,6.839-4.755,10.945-4.569a1.925,1.925,0,0,1,1.506,2.987,10.294,10.294,0,0,0-.694,1.127.374.374,0,0,1-.055.163.364.364,0,0,1-.331.177,11.152,11.152,0,0,0-11.5,11.174.376.376,0,0,1-.155.305l-.507.368A2.344,2.344,0,0,1,31.237,64.174Zm12.452-16.01a13.393,13.393,0,0,0-9.751,4.363,14.871,14.871,0,0,0-4.291,9.188,1.573,1.573,0,0,0,.7,1.435,1.6,1.6,0,0,0,1.828-.03l.353-.256a11.9,11.9,0,0,1,12-11.739c.119-.231.335-.576.7-1.127a1.172,1.172,0,0,0-.913-1.819Q44,48.164,43.689,48.164Zm1.435,3.169h0Zm0,0h0Zm0,0h0Zm0,0h0Zm0,0h0Zm0,0h0Z" transform="translate(120.759 -1.791) rotate(82)" fill="#4c241d"/>
    <path id="Контур_11201" data-name="Контур 11201" d="M74.933,94.262a11.512,11.512,0,0,0-3.382,8.184l.129-.105c9.822,5.674,17.006,4.876,17.006,4.876.4-5.987-4.465-14.848-5.247-16.321A11.5,11.5,0,0,0,74.933,94.262Z" transform="translate(154.387 -45.549) rotate(82)" fill="#ffce56"/>
    <path id="Контур_11202" data-name="Контур 11202" d="M84.012,104.009c-2.362,0-8.32-.506-15.929-4.847a.376.376,0,0,1-.53-.343A11.9,11.9,0,0,1,79.827,86.893a.376.376,0,0,1,.321.2l.095.178c3.656,6.841,5.453,12.493,5.2,16.345a.376.376,0,0,1-.334.349A10.6,10.6,0,0,1,84.012,104.009Zm-15.7-5.584c8.411,4.84,14.911,4.877,16.394,4.811.089-2.661-.774-7.466-5.116-15.6A11.151,11.151,0,0,0,68.31,98.426Z" transform="translate(151.299 -41.455) rotate(82)" fill="#4c241d"/>
    <ellipse id="Эллипс_690" data-name="Эллипс 690" cx="1.976" cy="1.976" rx="1.976" ry="1.976" transform="translate(65.552 50.044) rotate(82)" fill="#f53e28"/>
    <path id="Контур_11203" data-name="Контур 11203" d="M184.163,201.974a2.35,2.35,0,1,1,1.663-.688,2.344,2.344,0,0,1-1.663.688Zm-1.131-1.22a1.6,1.6,0,1,0,0-2.262A1.6,1.6,0,0,0,183.032,200.755Z" transform="translate(235.922 -157.878) rotate(82)" fill="#4c241d"/>
    <ellipse id="Эллипс_691" data-name="Эллипс 691" cx="1.704" cy="1.704" rx="1.704" ry="1.704" transform="translate(66.948 41.68) rotate(82)" fill="#f53e28"/>
    <path id="Контур_11204" data-name="Контур 11204" d="M97.907,174.376a2.08,2.08,0,1,1,1.471-.608A2.074,2.074,0,0,1,97.907,174.376Zm-.939-1.14a1.328,1.328,0,1,0,0-1.879A1.33,1.33,0,0,0,96.968,173.235Z" transform="translate(222.491 -77.328) rotate(82)" fill="#4c241d"/>
    <ellipse id="Эллипс_692" data-name="Эллипс 692" cx="2.365" cy="2.365" rx="2.365" ry="2.365" transform="translate(73.645 44.932) rotate(82)" fill="#f53e28"/>
    <path id="Контур_11205" data-name="Контур 11205" d="M142.716,110.006a2.739,2.739,0,1,1,1.938-.8A2.732,2.732,0,0,1,142.716,110.006Zm0-4.727a1.987,1.987,0,1,0,1.406.581,1.982,1.982,0,0,0-1.406-.581Z" transform="translate(157.992 -108.653) rotate(82)" fill="#4c241d"/>
    <g id="Сгруппировать_4632" data-name="Сгруппировать 4632" transform="translate(69.358 41.844) rotate(82)">
      <path id="Контур_11163" data-name="Контур 11163" d="M208.614,180.2a.374.374,0,0,1-.119-.019l-1.129-.376a.376.376,0,0,1,.238-.714l1.129.376a.376.376,0,0,1-.119.733Z" transform="translate(-197.515 -176.252)" fill="#a9ba5a"/>
      <path id="Контур_11164" data-name="Контур 11164" d="M159.485,192.953a.377.377,0,0,1-.357-.5l.376-1.129a.376.376,0,0,1,.714.238l-.376,1.129A.376.376,0,0,1,159.485,192.953Z" transform="translate(-154.03 -187.121)" fill="#a9ba5a"/>
      <path id="Контур_11165" data-name="Контур 11165" d="M130.614,222.2a.374.374,0,0,1-.119-.019l-1.129-.376a.376.376,0,1,1,.238-.714l1.129.376a.376.376,0,0,1-.119.733Z" transform="translate(-126.852 -214.302)" fill="#a9ba5a"/>
      <path id="Контур_11166" data-name="Контур 11166" d="M223.486,244.2a.376.376,0,0,1-.119-.733l1.129-.376a.376.376,0,0,1,.238.714l-1.129.376A.374.374,0,0,1,223.486,244.2Z" transform="translate(-212.01 -234.23)" fill="#a9ba5a"/>
      <path id="Контур_11167" data-name="Контур 11167" d="M106.614,150.2a.374.374,0,0,1-.119-.019l-1.129-.376a.376.376,0,0,1,.238-.714l1.129.376a.376.376,0,0,1-.119.733Z" transform="translate(-105.109 -149.074)" fill="#a9ba5a"/>
    </g>
    <path id="Контур_11206" data-name="Контур 11206" d="M167.784,140.513a1.829,1.829,0,0,0,3.093-1.953c-.216-.342-.84-.234-1.477.073l-.6-1.256-1.19.751.876,1.083C167.934,139.655,167.568,140.172,167.784,140.513Z" transform="translate(183.979 -137.584) rotate(82)" fill="#e7d1c4"/>
    <path id="Контур_11207" data-name="Контур 11207" d="M165.711,138.121a2.205,2.205,0,0,1-1.868-1.027h0c-.27-.428-.088-.981.5-1.547l-.649-.8a.376.376,0,0,1,.092-.555l1.189-.751a.38.38,0,0,1,.305-.043.376.376,0,0,1,.235.2l.446.931c.763-.288,1.341-.214,1.612.214a2.2,2.2,0,0,1-1.861,3.382Zm-1.167-3.521.61.754a.376.376,0,0,1-.057.53c-.526.423-.655.75-.619.808h0a1.453,1.453,0,1,0,2.457-1.551c-.037-.059-.387-.082-1,.211a.376.376,0,0,1-.5-.177l-.419-.875Z" transform="translate(180.898 -133.493) rotate(82)" fill="#4c241d"/>
    <path id="Контур_11208" data-name="Контур 11208" d="M136.46,227.738a1.825,1.825,0,0,0-3.6-.141c.95.371,1.858.682,2.714.94C136.116,228.355,136.5,228.077,136.46,227.738Z" transform="translate(267.997 -117.607) rotate(82)" fill="#e7d1c4"/>
    <path id="Контур_11209" data-name="Контур 11209" d="M131.956,225.288a.377.377,0,0,1-.108-.016c-.893-.269-1.816-.588-2.743-.95a.376.376,0,0,1-.231-.429,2.2,2.2,0,0,1,4.336.171c.039.293-.057.84-1.133,1.2A.375.375,0,0,1,131.956,225.288Zm-2.247-1.539c.756.287,1.506.544,2.237.767.4-.154.523-.312.518-.353h0a1.447,1.447,0,0,0-2.755-.413Z" transform="translate(264.913 -113.515) rotate(82)" fill="#4c241d"/>
    <path id="Контур_11210" data-name="Контур 11210" d="M175.486,101.332a.376.376,0,0,1-.336-.545l.752-1.5a.376.376,0,0,1,.673.337l-.752,1.5A.376.376,0,0,1,175.486,101.332Z" transform="translate(148.671 -139.484) rotate(82)" fill="#a9ba5a"/>
  </g>
</svg>
