<svg xmlns="http://www.w3.org/2000/svg" width="109.064" height="95.094" viewBox="0 0 109.064 95.094">
  <path id="Контур_11109" data-name="Контур 11109" d="M2336.489,323.575a14.667,14.667,0,0,0-2-2.79,40.387,40.387,0,0,0,12.229-29c0-.149,0-.3-.006-.446a30.2,30.2,0,0,1-55.244-.876,11.522,11.522,0,0,0-1.8-17.6,30.235,30.235,0,0,1,16.989-21.583c-.149,0-.3-.006-.446-.006a40.343,40.343,0,0,0-26.11,9.541,18.719,18.719,0,0,0-28.67,5.914,13.608,13.608,0,0,0,.835,27.19h13.49a40.513,40.513,0,0,0,38.042,38.3,9.368,9.368,0,0,0,8.129,13.135c.15.007.293.01.438.01h22.989a10.925,10.925,0,0,0,1.139-21.791Zm-94.624-43.266a10.4,10.4,0,0,1,10.4-10.4,10.224,10.224,0,0,1,1.25.076A15.514,15.514,0,0,1,2277.7,263q.3.236.587.487c.037.031.071.064.107.1q.233.206.458.421c.046.045.092.09.138.136q.2.2.4.409l.147.159q.188.2.368.415l.144.169c.119.143.235.289.349.436.043.056.088.112.13.169.118.158.233.319.346.481.033.048.068.1.1.144q.2.3.388.6c.008.014.018.028.027.042q.206.339.395.69l.01.02q.175.326.334.662c.031.065.06.132.089.2.077.167.152.334.223.5.035.084.068.17.1.255.061.154.121.308.177.465.034.094.066.189.1.285q.076.226.146.454.045.15.088.3c.043.152.082.3.12.459.025.1.051.2.074.306.035.158.067.318.1.479.019.1.04.2.057.3.031.176.055.353.079.53.012.086.026.171.037.258.032.264.058.53.076.8.137.006.274.015.408.027.055,0,.108.013.163.019.08.009.16.017.24.028s.141.023.212.035.123.019.184.031c.082.016.162.034.243.052.048.011.1.02.145.031.088.021.175.046.262.07l.119.032c.1.028.189.059.283.09l.09.029c.1.035.2.073.3.112l.063.023c.1.042.207.086.31.132l.047.02q.161.074.319.154l.028.013q.166.085.327.177l.011.006a8.344,8.344,0,0,1,1.813,1.4h0a8.289,8.289,0,0,1,1.052,10.287h0q-.131.2-.273.4l-.013.017q-.128.174-.265.341l-.058.069q-.122.146-.25.286l-.059.064a8.274,8.274,0,0,1-.667.64l-.045.038q-.15.126-.305.246l-.09.067q-.142.106-.29.206l-.088.06c-.122.081-.246.159-.372.234l-.011.006c-.132.078-.267.151-.4.221l-.092.046q-.157.078-.316.15l-.129.056q-.152.064-.307.123l-.123.047c-.135.049-.272.095-.411.137l-.022.007c-.146.044-.294.083-.444.119l-.132.029c-.107.024-.215.046-.324.065l-.157.027c-.107.017-.216.032-.324.045l-.144.017c-.156.016-.312.029-.47.036-.13.006-.26.009-.391.009h-30.98A10.4,10.4,0,0,1,2241.865,280.309Zm93.485,61.848h-22.989c-.1,0-.193,0-.29-.007a6.148,6.148,0,0,1-4.6-9.877c.058-.076.119-.15.181-.223.037-.044.075-.087.114-.13q.143-.162.3-.313.071-.069.144-.136.13-.119.267-.231c.071-.058.143-.116.217-.171s.122-.09.185-.133c.11-.075.222-.148.336-.217.054-.032.109-.062.164-.093.116-.065.235-.127.355-.184.046-.022.092-.042.139-.063q.191-.085.39-.157c.038-.014.074-.028.112-.041.154-.053.312-.1.471-.139l.112-.027c.165-.039.332-.071.5-.1l.087-.011c.181-.024.365-.043.551-.05a11.509,11.509,0,0,1,11.482-10.716c.19,0,.378.006.566.015l.164.01q.213.014.425.034l.149.015c.185.021.369.045.552.075l.048.009q.251.042.5.1l.143.031q.22.05.437.108l.1.028q.271.076.536.163l.045.016q.241.081.478.173l.1.041c.159.063.316.129.471.2l.035.015q.264.12.52.253l.023.012c.158.083.315.169.469.258l.062.036q.495.291.958.629l0,0c.154.112.3.229.451.348l.021.017a11.557,11.557,0,0,1,3.581,5.059,7.553,7.553,0,0,1,.927-.056,7.716,7.716,0,0,1,0,15.431Z" transform="translate(-2238.155 -250.772)" fill="#f8f5f4" stroke="#d5c9c0" stroke-width="1"/>
</svg>
